<svg width="517" height="290" viewBox="0 0 517 290" fill="none" xmlns="http://www.w3.org/2000/svg">
<g clip-path="url(#clip0_632_3231)">
<rect width="516" height="290" transform="translate(0.5)" fill="#E6F7FE"/>
<path d="M-119 166.043L204.136 352.606" stroke="#303030" stroke-width="2" stroke-dasharray="6 6"/>
<path d="M-46.8184 124.367L276.318 310.93" stroke="#303030" stroke-width="2" stroke-dasharray="6 6"/>
<path d="M25.3633 82.6953L348.499 269.258" stroke="#303030" stroke-width="2" stroke-dasharray="6 6"/>
<path d="M97.5449 41.0215L420.681 227.584" stroke="#303030" stroke-width="2" stroke-dasharray="6 6"/>
<path d="M378.719 -46.6875L-54.3676 203.355" stroke="#303030" stroke-width="2" stroke-dasharray="6 6"/>
<path d="M314.094 -84L-118.993 166.043" stroke="#303030" stroke-width="2" stroke-dasharray="6 6"/>
<path d="M443.344 -9.375L10.2574 240.668" stroke="#303030" stroke-width="2" stroke-dasharray="6 6"/>
<path d="M507.969 27.9375L74.8824 277.98" stroke="#303030" stroke-width="2" stroke-dasharray="6 6"/>
<path d="M572.6 65.25L139.513 315.293" stroke="#303030" stroke-width="2" stroke-dasharray="6 6"/>
<path d="M637.225 102.562L204.138 352.605" stroke="#303030" stroke-width="2" stroke-dasharray="6 6"/>
<path d="M241.906 -42.3262L565.042 144.237" stroke="#303030" stroke-width="2" stroke-dasharray="6 6"/>
<path d="M314.094 -84L637.23 102.563" stroke="#303030" stroke-width="2" stroke-dasharray="6 6"/>
<path d="M169.725 -0.652344L492.861 185.91" stroke="#303030" stroke-width="2" stroke-dasharray="6 6"/>
<path d="M368.045 22.3611L553.319 129.089L620.243 90.7282L434.968 -16L368.045 22.3611Z" fill="#8E44EC" stroke="#151515" stroke-width="2" stroke-linecap="round" stroke-linejoin="round"/>
<path d="M368.125 22.2989L553.317 129.086V164.267L368.125 57.4793V22.2989Z" fill="#151515" stroke="#151515" stroke-width="2" stroke-linecap="round" stroke-linejoin="round"/>
<path d="M423.001 6.17188L485.573 40.3608L466.416 50.6717L403.844 16.4828L423.001 6.17188Z" fill="#B382F2" stroke="#151515" stroke-width="2" stroke-linejoin="round"/>
<path d="M423.001 -2.16992L485.573 32.019L466.416 42.3299L403.844 8.14101L423.001 -2.16992Z" fill="#B382F2" stroke="#151515" stroke-width="2" stroke-linejoin="round"/>
<path d="M403.844 8.14062L466.416 42.3295V50.6706L403.844 16.4817V8.14062Z" fill="#151515" stroke="#151515" stroke-width="2" stroke-linejoin="round"/>
<path d="M466.414 42.3305L485.571 32.0195V40.3606L466.414 50.6715V42.3305Z" fill="#B382F2" stroke="#151515" stroke-width="2" stroke-linejoin="round"/>
<path d="M518.254 72.5838C520.611 71.2232 524.434 71.2279 526.781 72.5942L541.007 80.8781C543.266 82.1931 543.322 84.303 541.136 85.6577C538.83 87.0859 534.933 87.1255 532.542 85.745L518.254 77.4961C515.905 76.1396 515.905 73.9403 518.254 72.5838Z" fill="#B382F2" stroke="#151515" stroke-width="2" stroke-linejoin="round"/>
<path d="M518.254 64.5603C520.611 63.1998 524.434 63.2045 526.781 64.5708L541.007 72.8547C543.266 74.1696 543.322 76.2795 541.136 77.6342C538.83 79.0624 534.933 79.1021 532.542 77.7216L518.254 69.4727C515.905 68.1162 515.905 65.9169 518.254 64.5603Z" fill="#B382F2" stroke="#151515" stroke-width="2" stroke-linejoin="round"/>
<path d="M518.254 69.4736L532.542 77.7225V85.7449L518.254 77.496C517.074 76.8146 516.487 75.9204 516.492 75.0273L516.496 67.1422C516.491 67.0584 516.491 66.9745 516.496 66.8906L516.496 67.1422C516.548 67.9891 517.135 68.8271 518.254 69.4736Z" fill="#B382F2"/>
<path d="M532.542 77.7225L518.254 69.4736C517.024 68.7631 516.438 67.8213 516.496 66.8906L516.492 75.0273C516.487 75.9204 517.074 76.8146 518.254 77.496L532.542 85.7449V77.7225Z" stroke="#151515" stroke-width="2" stroke-linejoin="round"/>
<path d="M487.481 55.2713C489.837 53.9107 493.661 53.9154 496.007 55.2817L510.234 63.5656C512.492 64.8806 512.549 66.9905 510.362 68.3452C508.057 69.7734 504.159 69.813 501.768 68.4325L487.481 60.1836C485.131 58.8271 485.131 56.6278 487.481 55.2713Z" fill="#B382F2" stroke="#151515" stroke-width="2" stroke-linejoin="round"/>
<path d="M487.481 47.2518C489.837 45.8912 493.661 45.8959 496.007 47.2622L510.234 55.5461C512.492 56.861 512.549 58.9709 510.362 60.3256C508.057 61.7539 504.159 61.7935 501.768 60.413L487.481 52.1641C485.131 50.8076 485.131 48.6083 487.481 47.2518Z" fill="#B382F2" stroke="#151515" stroke-width="2" stroke-linejoin="round"/>
<path d="M487.481 52.165L501.768 60.4139V68.4363L487.481 60.1874C486.301 59.506 485.713 58.6118 485.719 57.7187L485.723 49.8336C485.717 49.7498 485.717 49.6659 485.723 49.582L485.723 49.8336C485.775 50.6805 486.361 51.5185 487.481 52.165Z" fill="#151515"/>
<path d="M501.768 60.4139L487.481 52.165C486.25 51.4545 485.664 50.5128 485.723 49.582L485.719 57.7187C485.713 58.6118 486.301 59.506 487.481 60.1874L501.768 68.4363V60.4139Z" stroke="#151515" stroke-width="2" stroke-linejoin="round"/>
<path d="M501.768 60.4103C504.159 61.7908 508.056 61.7512 510.361 60.323C511.414 59.6708 511.947 58.8435 511.964 58.0142V57.9297C511.965 57.9579 511.965 57.9861 511.964 58.0142V66.0367C511.947 66.866 511.414 67.6932 510.361 68.3454C508.056 69.7736 504.159 69.8132 501.768 68.4328V60.4103Z" fill="#B382F2"/>
<path d="M510.361 60.323C508.056 61.7512 504.159 61.7908 501.768 60.4103V68.4328C504.159 69.8132 508.056 69.7736 510.361 68.3454C511.414 67.6932 511.947 66.866 511.964 66.0367V57.9297C511.983 58.7871 511.45 59.6486 510.361 60.323Z" stroke="#151515" stroke-width="2" stroke-linejoin="round"/>
<path d="M366.861 23.7695L552.667 130.911V158.486L366.861 51.3447V23.7695Z" fill="#151515" stroke="#151515" stroke-width="2" stroke-linecap="round" stroke-linejoin="round"/>
<path d="M253.127 88.5746L438.932 195.716L552.915 130.379L367.11 23.2383L253.127 88.5746Z" fill="#3BBB96" stroke="#151515" stroke-width="2" stroke-linecap="round" stroke-linejoin="round"/>
<path d="M438.934 246.339V195.715L552.917 130.379L552.917 181.002L438.934 246.339Z" fill="#75DCC0" stroke="#151515" stroke-width="2" stroke-linecap="round" stroke-linejoin="round"/>
<path d="M253.127 88.5742L438.932 195.715V223.29L253.127 116.149V88.5742Z" fill="#151515" stroke="#151515" stroke-width="2" stroke-linecap="round" stroke-linejoin="round"/>
<path d="M319.764 58.1322L280.158 81.0032L359.234 126.269L438.31 171.534L480.392 147.234L522.473 122.933L443.397 77.6678L364.321 32.4022L319.764 58.1322Z" fill="#75DCC0" stroke="#151515" stroke-width="2" stroke-linejoin="round"/>
<path d="M438.305 179.823V171.531L522.468 122.93V131.222L438.305 179.823Z" fill="#75DCC0" stroke="#151515" stroke-width="2" stroke-linejoin="round"/>
<path d="M280.158 81.0039L438.31 171.535V179.827L280.158 89.296V81.0039Z" fill="#151515" stroke="#151515" stroke-width="2" stroke-linejoin="round"/>
<path d="M184.318 127.853L370.124 234.994L438.758 195.653L252.952 88.5117L184.318 127.853Z" fill="#8E44EC" stroke="#151515" stroke-width="2" stroke-linecap="round" stroke-linejoin="round"/>
<path d="M370.125 285.621V234.998L438.759 195.656V246.28L370.125 285.621Z" fill="#B382F2" stroke="#151515" stroke-width="2" stroke-linecap="round" stroke-linejoin="round"/>
<path d="M184.318 127.855L370.124 234.997V262.572L184.318 155.431V127.855Z" fill="#151515" stroke="#151515" stroke-width="2" stroke-linecap="round" stroke-linejoin="round"/>
<path d="M362.149 218.173L319.988 193.768L362.149 169.148L404.31 193.553L362.149 218.173Z" fill="#B382F2" stroke="#151515" stroke-width="2" stroke-linejoin="round"/>
<path d="M254.725 156.794L212.564 132.389L254.725 107.77L296.886 132.174L254.725 156.794Z" fill="#B382F2" stroke="#151515" stroke-width="2" stroke-linejoin="round"/>
<path d="M308.438 187.481L266.277 163.076L308.438 138.457L350.599 162.862L308.438 187.481Z" fill="#B382F2" stroke="#151515" stroke-width="2" stroke-linejoin="round"/>
<path d="M362.146 209.646L319.985 185.241L362.146 160.622L404.307 185.027L362.146 209.646Z" fill="#B382F2"/>
<path d="M254.725 148.262L212.564 123.858L254.725 99.2383L296.886 123.643L254.725 148.262Z" fill="#B382F2"/>
<path d="M308.437 178.954L266.276 154.549L308.437 129.93L350.598 154.335L308.437 178.954Z" fill="#B382F2"/>
<path d="M362.146 209.646L319.985 185.241L362.146 160.622L404.307 185.027L362.146 209.646Z" stroke="#151515" stroke-width="2" stroke-linejoin="round"/>
<path d="M254.725 148.262L212.564 123.858L254.725 99.2383L296.886 123.643L254.725 148.262Z" stroke="#151515" stroke-width="2" stroke-linejoin="round"/>
<path d="M308.437 178.954L266.276 154.549L308.437 129.93L350.598 154.335L308.437 178.954Z" stroke="#151515" stroke-width="2" stroke-linejoin="round"/>
<path d="M362.143 209.648L404.304 185.028V193.56L362.143 218.179V209.648Z" fill="#B382F2"/>
<path d="M254.725 148.264L296.885 123.645V132.176L254.725 156.795V148.264Z" fill="#B382F2"/>
<path d="M308.434 178.955L350.595 154.336V162.868L308.434 187.487V178.955Z" fill="#B382F2"/>
<path d="M362.143 209.648L404.304 185.028V193.56L362.143 218.179V209.648Z" stroke="#151515" stroke-width="2" stroke-linejoin="round"/>
<path d="M254.725 148.264L296.885 123.645V132.176L254.725 156.795V148.264Z" stroke="#151515" stroke-width="2" stroke-linejoin="round"/>
<path d="M308.434 178.955L350.595 154.336V162.868L308.434 187.487V178.955Z" stroke="#151515" stroke-width="2" stroke-linejoin="round"/>
<path d="M362.146 209.644L319.985 185.239V193.771L362.146 218.175V209.644Z" fill="#151515"/>
<path d="M254.725 148.26L212.564 123.855V132.387L254.725 156.792V148.26Z" fill="#151515"/>
<path d="M308.437 178.952L266.276 154.547V163.078L308.437 187.483V178.952Z" fill="#151515"/>
<path d="M362.146 209.644L319.985 185.239V193.771L362.146 218.175V209.644Z" stroke="#151515" stroke-width="2" stroke-linejoin="round"/>
<path d="M254.725 148.26L212.564 123.855V132.387L254.725 156.792V148.26Z" stroke="#151515" stroke-width="2" stroke-linejoin="round"/>
<path d="M308.437 178.952L266.276 154.547V163.078L308.437 187.483V178.952Z" stroke="#151515" stroke-width="2" stroke-linejoin="round"/>
<path d="M42 209.547L227.805 316.688V367.311L42 260.17V209.547Z" fill="#151515" stroke="#151515" stroke-width="2" stroke-linecap="round" stroke-linejoin="round"/>
<path d="M370.374 234.989L184.568 127.848L42.0897 209.518L227.895 316.659L370.374 234.989Z" fill="#59B5F8" stroke="#151515" stroke-width="2" stroke-linecap="round" stroke-linejoin="round"/>
<path d="M370.368 285.608L370.368 234.984L227.889 316.655L227.889 367.278L370.368 285.608Z" fill="#87D9FD" stroke="#151515" stroke-width="2" stroke-linecap="round" stroke-linejoin="round"/>
<path d="M255.079 186.551L186.565 147.332L74.5021 212.044L143.016 251.263L255.079 186.551Z" fill="#87D9FD" stroke="#151515" stroke-width="2" stroke-linejoin="round"/>
<path d="M255.079 178.02L186.565 138.801L74.5021 203.513L143.016 242.732L255.079 178.02Z" fill="#87D9FD" stroke="#151515" stroke-width="2" stroke-linejoin="round"/>
<path d="M143.016 242.731L74.502 203.512V212.043L143.016 251.263V242.731Z" fill="#151515" stroke="#151515" stroke-width="2" stroke-linejoin="round"/>
<path d="M143.018 242.731L255.081 178.02V186.551L143.018 251.263V242.731Z" fill="#87D9FD" stroke="#151515" stroke-width="2" stroke-linejoin="round"/>
<path d="M265.778 198.679C267.99 197.402 271.579 197.404 273.786 198.685L301.042 214.503C303.133 215.716 303.226 217.659 301.256 218.937C299.112 220.328 295.384 220.39 293.104 219.074L265.778 203.297C263.569 202.022 263.569 199.954 265.778 198.679Z" fill="#151515" stroke="#151515" stroke-width="2"/>
<path d="M293.107 212.847C295.387 214.163 299.115 214.1 301.259 212.71C302.202 212.098 302.672 211.334 302.677 210.57V210.547C302.677 210.555 302.677 210.563 302.677 210.57V216.797C302.672 217.561 302.202 218.325 301.259 218.937C299.115 220.327 295.387 220.39 293.107 219.073V212.847Z" fill="#87D9FD"/>
<path d="M301.259 212.71C299.115 214.1 295.387 214.163 293.107 212.847V219.073C295.387 220.39 299.115 220.327 301.259 218.937C302.202 218.325 302.672 217.561 302.677 216.797V210.547C302.682 211.318 302.212 212.092 301.259 212.71Z" stroke="#151515" stroke-width="2" stroke-linejoin="round"/>
<path d="M228.527 216.469C230.739 215.191 234.326 215.193 236.535 216.472L294.625 250.102C296.642 251.27 296.815 253.127 295.026 254.412C292.937 255.913 289.054 256.035 286.697 254.674L228.527 221.089C226.317 219.813 226.317 217.745 228.527 216.469Z" fill="#87D9FD" stroke="#151515" stroke-width="2" stroke-linejoin="round"/>
<path d="M286.693 252.221C289.051 253.582 292.934 253.461 295.022 251.96C295.847 251.367 296.255 250.653 296.258 249.941V256.168C296.255 256.88 295.847 257.594 295.022 258.187C292.934 259.687 289.051 259.809 286.693 258.448V252.221Z" fill="#87D9FD" stroke="#151515" stroke-width="2" stroke-linejoin="round"/>
<path d="M206.96 226.976C209.172 225.699 212.76 225.701 214.969 226.98L273.059 260.61C275.076 261.778 275.248 263.635 273.459 264.92C271.371 266.421 267.488 266.543 265.13 265.182L206.96 231.597C204.75 230.321 204.75 228.252 206.96 226.976Z" fill="#87D9FD" stroke="#151515" stroke-width="2" stroke-linejoin="round"/>
<path d="M265.785 192.452C267.998 191.175 271.587 191.178 273.794 192.458L301.05 208.276C303.141 209.489 303.234 211.432 301.263 212.711C299.12 214.101 295.392 214.164 293.112 212.847L265.785 197.07C263.577 195.795 263.577 193.728 265.785 192.452Z" fill="#87D9FD"/>
<path d="M228.53 214.166C230.742 212.889 234.329 212.891 236.538 214.17L294.629 247.8C296.646 248.968 296.818 250.825 295.029 252.11C292.94 253.611 289.058 253.733 286.7 252.371L228.53 218.787C226.32 217.511 226.32 215.442 228.53 214.166Z" fill="#87D9FD"/>
<path d="M206.96 224.673C209.172 223.396 212.76 223.398 214.969 224.677L273.059 258.307C275.076 259.475 275.248 261.332 273.459 262.617C271.371 264.118 267.488 264.24 265.13 262.878L206.96 229.294C204.75 228.018 204.75 225.949 206.96 224.673Z" fill="#87D9FD"/>
<path d="M265.785 192.452C267.998 191.175 271.587 191.178 273.794 192.458L301.05 208.276C303.141 209.489 303.234 211.432 301.263 212.711C299.12 214.101 295.392 214.164 293.112 212.847L265.785 197.07C263.577 195.795 263.577 193.728 265.785 192.452Z" stroke="#151515" stroke-width="2" stroke-linejoin="round"/>
<path d="M228.53 214.166C230.742 212.889 234.329 212.891 236.538 214.17L294.629 247.8C296.646 248.968 296.818 250.825 295.029 252.11C292.94 253.611 289.058 253.733 286.7 252.371L228.53 218.787C226.32 217.511 226.32 215.442 228.53 214.166Z" stroke="#151515" stroke-width="2" stroke-linejoin="round"/>
<path d="M206.96 224.673C209.172 223.396 212.76 223.398 214.969 224.677L273.059 258.307C275.076 259.475 275.248 261.332 273.459 262.617C271.371 264.118 267.488 264.24 265.13 262.878L206.96 229.294C204.75 228.018 204.75 225.949 206.96 224.673Z" stroke="#151515" stroke-width="2" stroke-linejoin="round"/>
<path d="M265.789 197.067L293.115 212.844V219.071L265.789 203.294C264.644 202.633 264.093 201.76 264.135 200.894V194.859C264.178 195.661 264.729 196.455 265.789 197.067Z" fill="#151515"/>
<path d="M228.53 218.64L286.7 252.225V258.451L228.53 224.867C227.411 224.221 226.859 223.372 226.873 222.525V216.362C226.887 217.187 227.439 218.01 228.53 218.64Z" fill="#151515"/>
<path d="M206.96 229.425L265.13 263.009V269.236L206.96 235.651C205.841 235.005 205.289 234.156 205.303 233.31V227.146C205.317 227.972 205.869 228.795 206.96 229.425Z" fill="#151515"/>
<path d="M265.789 197.067L293.115 212.844V219.071L265.789 203.294C264.644 202.633 264.093 201.76 264.135 200.894V194.859C264.178 195.661 264.729 196.455 265.789 197.067Z" stroke="#151515" stroke-width="2" stroke-linejoin="round"/>
<path d="M228.53 218.64L286.7 252.225V258.451L228.53 224.867C227.411 224.221 226.859 223.372 226.873 222.525V216.362C226.887 217.187 227.439 218.01 228.53 218.64Z" stroke="#151515" stroke-width="2" stroke-linejoin="round"/>
<path d="M206.96 229.425L265.13 263.009V269.236L206.96 235.651C205.841 235.005 205.289 234.156 205.303 233.31V227.146C205.317 227.972 205.869 228.795 206.96 229.425Z" stroke="#151515" stroke-width="2" stroke-linejoin="round"/>
<path d="M265.125 263.006C267.483 264.368 271.366 264.246 273.454 262.745C274.279 262.152 274.687 261.438 274.689 260.727V266.953C274.687 267.665 274.279 268.379 273.454 268.972C271.366 270.473 267.483 270.594 265.125 269.233V263.006Z" fill="#87D9FD" stroke="#151515" stroke-width="2" stroke-linejoin="round"/>
</g>
<defs>
<clipPath id="clip0_632_3231">
<rect width="516" height="290" fill="white" transform="translate(0.5)"/>
</clipPath>
</defs>
</svg>
