<svg width="517" height="290" viewBox="0 0 517 290" fill="none" xmlns="http://www.w3.org/2000/svg">
<g clip-path="url(#clip0_1041_1214)">
<rect width="516" height="290" transform="translate(0.5)" fill="#F5E6FF"/>
<path d="M97 300.501L274.421 199.658L295.02 211.743V216.569L118.5 319.501L97.0035 307.001L97 300.501Z" fill="#151515" stroke="#151515" stroke-width="2" stroke-linejoin="round"/>
<path d="M97 300.501L274.421 199.658L295.02 211.743V216.569L118.5 319.501L97.0035 307.001L97 300.501Z" fill="#151515" stroke="#151515" stroke-width="2" stroke-linejoin="round"/>
<path d="M208.988 166.47C208.988 187.106 216.2 201.633 227.872 208.463L249.803 221.329C246.121 219.164 242.886 216.231 240.182 212.581C234.338 204.693 230.979 193.455 230.979 179.371C230.979 137.916 260.082 87.5074 295.983 66.78L273.993 53.8789C238.092 74.6064 208.988 125.015 208.988 166.47Z" fill="#B382F2"/>
<path d="M249.803 221.329C246.121 219.164 242.886 216.231 240.182 212.581C234.338 204.693 230.979 193.455 230.979 179.371C230.979 137.916 260.082 87.5074 295.983 66.78L273.993 53.8789C238.092 74.6064 208.988 125.015 208.988 166.47C208.988 187.106 216.2 201.633 227.872 208.463L249.803 221.329ZM249.803 221.329L249.863 221.364" stroke="#151515" stroke-width="2" stroke-linecap="round" stroke-linejoin="round"/>
<path d="M273.993 53.8781L295.984 66.7792C308.368 59.629 319.944 56.9449 329.795 58.1982C335.639 66.0862 338.998 77.3247 338.998 91.4085L360.988 104.31C360.988 83.3993 353.584 68.7613 341.637 62.0481L319.646 49.1471C307.908 42.5513 291.786 43.6058 273.993 53.8781Z" fill="#151515"/>
<path d="M341.637 62.0481C353.584 68.7613 360.988 83.3993 360.988 104.31L338.998 91.4085C338.998 77.3247 335.639 66.0862 329.795 58.1982M341.637 62.0481L319.646 49.1471C307.908 42.5513 291.786 43.6058 273.993 53.8781L295.984 66.7792C308.368 59.629 319.944 56.9449 329.795 58.1982M341.637 62.0481C338.069 60.0434 334.096 58.7454 329.795 58.1982" stroke="#151515" stroke-width="2" stroke-linejoin="round"/>
<path d="M249.761 190.154C245.081 192.949 237.071 197.733 233.488 190.568L245.988 222.068L558.818 35.8166V29.8166L537 18L249.761 190.154Z" fill="#151515" stroke="#151515" stroke-width="2" stroke-linejoin="round"/>
<path d="M233.488 190.568C237.108 197.807 245.248 192.848 249.905 190.068L539.001 17L560.818 28.8166L256.799 210.14L245.988 216.068C244.366 213.213 233.488 190.568 233.488 190.568Z" fill="#8E44EC" stroke="#151515" stroke-width="2" stroke-linejoin="round"/>
<path d="M240.183 212.582C234.34 204.694 230.98 193.455 230.98 179.371L234.399 176.588C234.399 189.78 237.545 200.308 243.019 207.696C245.552 211.115 248.583 213.862 252.031 215.89L249.804 221.329C246.123 219.164 242.887 216.232 240.183 212.582Z" fill="#151515" stroke="#151515" stroke-width="1.50978" stroke-linejoin="round"/>
<path d="M230.98 179.37C230.98 137.916 260.083 87.5068 295.984 66.7793L295.288 71.1216C261.66 90.5372 234.398 137.756 234.398 176.587L230.98 179.37Z" fill="#151515" stroke="#151515" stroke-width="1.50978" stroke-linejoin="round"/>
<path d="M342.025 168.246C330.256 188.677 313.976 205.683 295.986 216.069C277.957 226.479 261.639 228.255 249.863 221.365L249.803 221.329C246.122 219.164 242.886 216.232 240.182 212.582L243.018 207.696C245.551 211.115 248.582 213.862 252.03 215.89L252.086 215.923C263.117 222.378 278.399 221.493 295.288 211.743C312.139 202.014 327.391 185.304 338.415 166.167C349.392 147.112 356.178 125.651 356.178 106.278L360.988 104.311C360.988 124.993 353.744 147.904 342.025 168.246Z" fill="#151515" stroke="#151515" stroke-width="1.50978" stroke-linejoin="round"/>
<path d="M295.288 71.1222L295.984 66.7799C330.624 46.023 360.988 64.0124 360.988 104.31L356.178 106.277C356.178 68.128 326.725 52.9721 295.288 71.1222Z" fill="#151515" stroke="#151515" stroke-width="1.50978" stroke-linejoin="round"/>
<path d="M97 300.302L118.76 312.849L295.016 211.742C311.867 202.013 327.119 185.304 338.144 166.166C349.121 147.112 355.907 125.65 355.907 106.277C355.907 86.6901 348.97 72.9785 337.78 66.6902C334.438 64.8124 330.717 63.5966 326.687 63.084C332.161 70.4728 335.308 80.9999 335.308 94.1924C335.308 133.024 308.046 180.242 274.417 199.658L97 300.302Z" fill="#8E44EC" stroke="#151515" stroke-width="2" stroke-linejoin="round"/>
<path d="M295.016 211.743L118.76 312.85L97 300.303L274.417 199.658" stroke="#151515" stroke-width="2" stroke-linejoin="round"/>
<path opacity="0.5" d="M243.217 131.951C237.44 135.252 228.074 135.252 222.297 131.951C216.521 128.65 216.521 123.298 222.297 119.997C228.074 116.696 237.44 116.696 243.217 119.997C248.993 123.298 248.993 128.65 243.217 131.951Z" fill="#151515"/>
<circle cx="232.757" cy="85.7572" r="21.7572" fill="#59B5F8" stroke="#151515" stroke-width="2"/>
<mask id="path-17-inside-1_1041_1214" fill="white">
<path fill-rule="evenodd" clip-rule="evenodd" d="M232.757 108.514C245.326 108.514 255.514 98.3256 255.514 85.7572C255.514 85.0886 255.485 84.4268 255.429 83.7729C254.424 93.4152 244.657 100.982 232.757 100.982C220.857 100.982 211.091 93.4153 210.085 83.7732C210.029 84.427 210 85.0887 210 85.7572C210 98.3256 220.189 108.514 232.757 108.514ZM224.321 64.615C226.93 63.7519 229.776 63.2771 232.757 63.2771C235.738 63.2771 238.585 63.7519 241.194 64.6151C238.585 63.5731 235.738 63 232.757 63C229.776 63 226.93 63.5731 224.321 64.615Z"/>
</mask>
<path fill-rule="evenodd" clip-rule="evenodd" d="M232.757 108.514C245.326 108.514 255.514 98.3256 255.514 85.7572C255.514 85.0886 255.485 84.4268 255.429 83.7729C254.424 93.4152 244.657 100.982 232.757 100.982C220.857 100.982 211.091 93.4153 210.085 83.7732C210.029 84.427 210 85.0887 210 85.7572C210 98.3256 220.189 108.514 232.757 108.514ZM224.321 64.615C226.93 63.7519 229.776 63.2771 232.757 63.2771C235.738 63.2771 238.585 63.7519 241.194 64.6151C238.585 63.5731 235.738 63 232.757 63C229.776 63 226.93 63.5731 224.321 64.615Z" fill="#151515"/>
<path d="M255.429 83.7729L257.422 83.6008L253.44 83.5656L255.429 83.7729ZM210.085 83.7732L212.074 83.5658L208.093 83.6011L210.085 83.7732ZM224.321 64.615L223.579 62.7577L224.949 66.5138L224.321 64.615ZM241.194 64.6151L240.566 66.5139L241.936 62.7578L241.194 64.6151ZM253.514 85.7572C253.514 97.221 244.221 106.514 232.757 106.514V110.514C246.43 110.514 257.514 99.4302 257.514 85.7572H253.514ZM253.436 83.9451C253.488 84.5418 253.514 85.1462 253.514 85.7572H257.514C257.514 85.0311 257.483 84.3119 257.422 83.6008L253.436 83.9451ZM253.44 83.5656C252.57 91.9125 243.937 98.9818 232.757 98.9818V102.982C245.377 102.982 256.278 94.9179 257.418 83.9803L253.44 83.5656ZM232.757 98.9818C221.577 98.9818 212.945 91.9126 212.074 83.5658L208.096 83.9806C209.236 94.9181 220.137 102.982 232.757 102.982V98.9818ZM212 85.7572C212 85.1462 212.026 84.5419 212.078 83.9453L208.093 83.6011C208.031 84.3121 208 85.0312 208 85.7572H212ZM232.757 106.514C221.293 106.514 212 97.221 212 85.7572H208C208 99.4302 219.084 110.514 232.757 110.514V106.514ZM224.949 66.5138C227.354 65.7181 229.989 65.2771 232.757 65.2771V61.2771C229.564 61.2771 226.505 61.7856 223.692 62.7162L224.949 66.5138ZM232.757 65.2771C235.526 65.2771 238.161 65.7181 240.566 66.5139L241.822 62.7164C239.009 61.7857 235.95 61.2771 232.757 61.2771V65.2771ZM232.757 65C235.48 65 238.075 65.5231 240.452 66.4725L241.936 62.7578C239.095 61.6231 235.996 61 232.757 61V65ZM225.063 66.4724C227.439 65.5231 230.035 65 232.757 65V61C229.518 61 226.42 61.623 223.579 62.7577L225.063 66.4724Z" fill="#151515" mask="url(#path-17-inside-1_1041_1214)"/>
<circle cx="47" cy="47" r="102" stroke="#151515" stroke-width="2" stroke-linecap="round" stroke-linejoin="round" stroke-dasharray="6 6"/>
<path fill-rule="evenodd" clip-rule="evenodd" d="M46.5 117C85.4361 117 117 85.4361 117 46.5C117 7.56392 85.4361 -24 46.5 -24C7.56392 -24 -24 7.56392 -24 46.5C-24 85.4361 7.56392 117 46.5 117Z" fill="#8E44EC" stroke="#151515" stroke-width="2" stroke-linejoin="round"/>
<circle cx="493" cy="271" r="102" stroke="#151515" stroke-width="2" stroke-linecap="round" stroke-linejoin="round" stroke-dasharray="6 6"/>
<path fill-rule="evenodd" clip-rule="evenodd" d="M493 361C542.706 361 583 320.706 583 271C583 221.294 542.706 181 493 181C443.294 181 403 221.294 403 271C403 320.706 443.294 361 493 361ZM493 335C528.346 335 557 306.346 557 271C557 235.654 528.346 207 493 207C457.654 207 429 235.654 429 271C429 306.346 457.654 335 493 335Z" fill="#59B5F8" stroke="#151515" stroke-width="2" stroke-linejoin="round"/>
</g>
<defs>
<clipPath id="clip0_1041_1214">
<rect width="516" height="290" fill="white" transform="translate(0.5)"/>
</clipPath>
</defs>
</svg>
