<svg width="517" height="290" viewBox="0 0 517 290" fill="none" xmlns="http://www.w3.org/2000/svg">
<g clip-path="url(#clip0_1016_4711)">
<rect width="516" height="290" transform="translate(0.5)" fill="#FFE5EA"/>
<path d="M-48 -35.212L19.1657 -74L196 29.5166L19.6977 130L-47.4965 91.1955L61.3369 28.2091L-48 -35.212Z" stroke="#151515" stroke-width="2" stroke-linecap="round" stroke-linejoin="round" stroke-dasharray="6 6"/>
<path d="M-48 198.788L19.1657 160L196 263.517L19.6977 364L-47.4965 325.195L61.3369 262.209L-48 198.788Z" stroke="#151515" stroke-width="2" stroke-linecap="round" stroke-linejoin="round" stroke-dasharray="6 6"/>
<path d="M-49 233.493L-18.1698 216L63 262.684L-17.9257 308L-48.7689 290.5L1.18742 262.094L-49 233.493Z" fill="#F97289" stroke="#151515" stroke-width="2" stroke-linecap="round" stroke-linejoin="round"/>
<path d="M-49 -0.507354L-18.1698 -18L63 28.684L-17.9257 74L-48.7689 56.4999L1.18742 28.0943L-49 -0.507354Z" fill="#F97289" stroke="#151515" stroke-width="2" stroke-linecap="round" stroke-linejoin="round"/>
<path d="M366 24.4926L396.83 7L478 53.684L397.074 99L366.231 81.4999L416.187 53.0943L366 24.4926Z" stroke="#151515" stroke-width="2" stroke-linecap="round" stroke-linejoin="round" stroke-dasharray="6 6"/>
<path d="M405 24.4926L435.83 7L517 53.684L436.074 99L405.231 81.4999L455.187 53.0943L405 24.4926Z" fill="#F97289" stroke="#151515" stroke-width="2" stroke-linecap="round" stroke-linejoin="round"/>
<path d="M366 218.493L396.83 201L478 247.684L397.074 293L366.231 275.5L416.187 247.094L366 218.493Z" stroke="#151515" stroke-width="2" stroke-linecap="round" stroke-linejoin="round" stroke-dasharray="6 6"/>
<path d="M405 218.493L435.83 201L517 247.684L436.074 293L405.231 275.5L455.187 247.094L405 218.493Z" fill="#F97289" stroke="#151515" stroke-width="2" stroke-linecap="round" stroke-linejoin="round"/>
<path d="M131 115.493L289.046 206.627L386 151.052L227.954 59.918L131 115.493Z" fill="#F97289" stroke="#151515" stroke-width="2" stroke-linejoin="round"/>
<path d="M289.047 230.083V206.628L386.001 151.053L386.001 174.508L289.047 230.083Z" fill="#F7A1B0" stroke="#151515" stroke-width="2" stroke-linejoin="round"/>
<path d="M131 115.492L289.046 206.626V230.082L131 138.948V115.492Z" fill="#151515" stroke="#151515" stroke-width="2" stroke-linecap="round" stroke-linejoin="round"/>
<path d="M175.744 104.123L223.825 130.394L209.104 138.317L161.023 112.046L175.744 104.123Z" fill="#505050" stroke="#151515" stroke-width="2" stroke-linejoin="round"/>
<path d="M175.744 104.123L161.023 112.046L164.099 113.727L175.744 107.459V104.123Z" fill="#75DCC0" stroke="#151515" stroke-width="2" stroke-linejoin="round"/>
<path d="M223.825 130.394L175.744 104.123V107.459L220.749 132.049L223.825 130.394Z" fill="#151515" stroke="#151515" stroke-width="2" stroke-linejoin="round"/>
<path d="M210.669 87.679C212.551 86.5926 215.603 86.5942 217.481 87.6827L252.457 107.951C254.208 108.965 254.318 110.585 252.712 111.676C250.909 112.9 247.679 112.976 245.71 111.839L210.669 91.6083C208.79 90.5233 208.79 88.7641 210.669 87.679Z" fill="#505050" stroke="#151515" stroke-width="2" stroke-linejoin="round"/>
<path d="M252.456 111.288L217.48 91.0196V87.6836L252.456 107.952C254.146 108.931 254.308 110.475 252.871 111.562C252.745 111.466 252.607 111.375 252.456 111.288Z" fill="#151515" stroke="#151515" stroke-width="2" stroke-linejoin="round"/>
<path d="M217.481 87.6827C215.603 86.5942 212.551 86.5926 210.669 87.679C208.953 88.67 208.804 90.2232 210.223 91.3117C210.357 91.2083 210.506 91.1091 210.669 91.015C212.551 89.9286 215.603 89.9302 217.481 91.0187V87.6827Z" fill="#75DCC0" stroke="#151515" stroke-width="2" stroke-linejoin="round"/>
<path d="M194.82 96.8548C196.701 95.7683 199.753 95.77 201.632 96.8584L236.608 117.126C238.358 118.141 238.469 119.761 236.862 120.851C235.059 122.076 231.829 122.152 229.86 121.015L194.82 100.784C192.94 99.6991 192.94 97.9399 194.82 96.8548Z" fill="#505050" stroke="#151515" stroke-width="2" stroke-linejoin="round"/>
<path d="M236.607 120.463L201.631 100.195V96.8594L236.607 117.127C238.297 118.107 238.458 119.65 237.022 120.738C236.895 120.642 236.757 120.551 236.607 120.463Z" fill="#151515" stroke="#151515" stroke-width="2" stroke-linejoin="round"/>
<path d="M201.632 96.8584C199.753 95.77 196.701 95.7683 194.82 96.8548C193.103 97.8457 192.954 99.399 194.373 100.487C194.508 100.384 194.657 100.285 194.82 100.191C196.701 99.1043 199.753 99.106 201.632 100.194V96.8584Z" fill="#75DCC0" stroke="#151515" stroke-width="2" stroke-linejoin="round"/>
<path d="M226.515 78.5071C228.397 77.4207 231.449 77.4223 233.327 78.5108L268.303 98.7788C270.053 99.7931 270.164 101.413 268.558 102.504C266.754 103.728 263.524 103.804 261.556 102.667L226.515 82.4365C224.636 81.3514 224.636 79.5922 226.515 78.5071Z" fill="#505050" stroke="#151515" stroke-width="2" stroke-linejoin="round"/>
<path d="M268.302 102.116L233.326 81.8477V78.5117L268.302 98.7798C269.992 99.7591 270.154 101.303 268.717 102.39C268.591 102.295 268.452 102.203 268.302 102.116Z" fill="#151515" stroke="#151515" stroke-width="2" stroke-linejoin="round"/>
<path d="M233.327 78.5108C231.449 77.4223 228.397 77.4207 226.515 78.5071C224.799 79.4981 224.65 81.0513 226.068 82.1398C226.203 82.0364 226.352 81.9373 226.515 81.8431C228.397 80.7567 231.449 80.7583 233.327 81.8468V78.5108Z" fill="#75DCC0" stroke="#151515" stroke-width="2" stroke-linejoin="round"/>
<path fill-rule="evenodd" clip-rule="evenodd" d="M263.423 149.692L263.665 156.142C263.665 156.578 263.831 156.992 264.13 157.363C264.372 157.672 264.713 157.962 265.153 158.217L281.994 167.939C282.19 168.052 282.189 168.235 281.993 168.348C281.898 168.403 281.77 168.433 281.637 168.433L273.256 168.436C272.593 168.436 271.957 168.285 271.489 168.014L258.066 160.265C254.158 158.009 254.164 154.347 258.08 152.086L262.568 149.495C262.764 149.382 263.082 149.382 263.277 149.495C263.368 149.547 263.42 149.618 263.423 149.692Z" fill="#F97289" stroke="#151515" stroke-width="2" stroke-linejoin="round"/>
<path d="M258.066 146.314L271.489 154.063C271.725 154.2 272.005 154.306 272.309 154.378V168.33C272.005 168.258 271.725 168.152 271.489 168.016L258.066 160.267C256.132 159.15 255.157 157.69 255.139 156.225V142.273C255.139 142.246 255.139 142.219 255.139 142.191V142.273C255.157 143.738 256.132 145.198 258.066 146.314Z" fill="#F7A1B0"/>
<path d="M271.489 154.063L258.066 146.314C256.096 145.177 255.121 143.683 255.139 142.191V156.225C255.157 157.69 256.132 159.15 258.066 160.267L271.489 168.016C271.725 168.152 272.005 168.258 272.309 168.33V154.378C272.005 154.306 271.725 154.2 271.489 154.063Z" stroke="#151515" stroke-width="2" stroke-linejoin="round"/>
<path d="M281.639 154.482C281.772 154.482 281.9 154.451 281.994 154.397C282.081 154.346 282.13 154.282 282.14 154.217V154.166C282.143 154.183 282.143 154.2 282.14 154.217V168.118C282.152 168.201 282.104 168.286 281.994 168.349C281.9 168.404 281.772 168.434 281.639 168.434L273.258 168.437C272.93 168.437 272.608 168.4 272.311 168.33V154.378C272.608 154.448 272.93 154.485 273.258 154.485L281.639 154.482Z" fill="#151515"/>
<path d="M281.994 154.397C281.9 154.451 281.772 154.482 281.639 154.482L273.258 154.485C272.93 154.485 272.608 154.448 272.311 154.378V168.33C272.608 168.4 272.93 168.437 273.258 168.437L281.639 168.434C281.772 168.434 281.9 168.404 281.994 168.349C282.104 168.286 282.152 168.201 282.14 168.118V154.166C282.152 154.248 282.104 154.334 281.994 154.397Z" stroke="#151515" stroke-width="2" stroke-linejoin="round"/>
<path fill-rule="evenodd" clip-rule="evenodd" d="M263.423 135.741L263.665 142.191C263.665 142.627 263.831 143.041 264.13 143.411C264.372 143.721 264.713 144.011 265.153 144.265L281.994 153.988C282.19 154.101 282.189 154.284 281.993 154.397C281.898 154.452 281.77 154.482 281.637 154.482L273.256 154.485C272.593 154.485 271.957 154.333 271.489 154.063L258.066 146.314C254.158 144.058 254.164 140.396 258.08 138.135L262.568 135.544C262.764 135.431 263.082 135.431 263.277 135.543C263.368 135.596 263.42 135.667 263.423 135.741Z" fill="#F97289" stroke="#151515" stroke-width="2" stroke-linejoin="round"/>
<path fill-rule="evenodd" clip-rule="evenodd" d="M278.701 171.486L289.87 171.334C290.626 171.334 291.342 171.237 291.985 171.063C292.522 170.923 293.025 170.726 293.466 170.471L310.34 160.73C310.537 160.616 310.854 160.616 311.05 160.729C311.143 160.783 311.196 160.856 311.196 160.933L311.184 165.772C311.183 166.156 310.918 166.525 310.446 166.797L297.001 174.559C293.085 176.819 286.742 176.823 282.834 174.566L278.355 171.981C278.16 171.868 278.16 171.685 278.357 171.571C278.448 171.519 278.571 171.488 278.701 171.486Z" fill="#F97289" stroke="#151515" stroke-width="2" stroke-linejoin="round"/>
<path d="M310.447 152.846C310.918 152.573 311.184 152.205 311.185 151.82L311.196 160.934L311.185 165.772C311.184 166.157 310.918 166.526 310.447 166.798L297.002 174.559C295.033 175.696 292.45 176.262 289.871 176.257V162.305C292.45 162.31 295.033 161.744 297.002 160.607L310.447 152.846Z" fill="#151515" stroke="#151515" stroke-width="2" stroke-linejoin="round"/>
<path d="M278.355 158.031L282.834 160.616C284.777 161.738 287.321 162.301 289.87 162.306V176.258C287.321 176.253 284.777 175.69 282.834 174.568L278.355 171.983C278.254 171.925 278.206 171.848 278.209 171.772V157.834C278.212 157.905 278.261 157.976 278.355 158.031Z" fill="#F7A1B0" stroke="#151515" stroke-width="2" stroke-linejoin="round"/>
<path fill-rule="evenodd" clip-rule="evenodd" d="M278.701 157.535L289.87 157.383C290.626 157.383 291.342 157.286 291.985 157.112C292.522 156.972 293.025 156.775 293.466 156.52L310.34 146.779C310.537 146.665 310.854 146.665 311.05 146.778C311.143 146.832 311.196 146.905 311.196 146.982L311.184 151.82C311.183 152.205 310.918 152.574 310.446 152.846L297.001 160.607C293.085 162.868 286.742 162.872 282.834 160.615L278.355 158.03C278.16 157.917 278.16 157.734 278.357 157.62C278.448 157.567 278.571 157.537 278.701 157.535Z" fill="#F97289" stroke="#151515" stroke-width="2" stroke-linejoin="round"/>
<path d="M262.666 131.403C263.137 131.13 263.403 130.761 263.403 130.377V139.441C263.409 139.458 263.412 139.475 263.412 139.493L263.403 144.329C263.403 144.714 263.137 145.083 262.666 145.355L257.538 148.315C252.797 151.052 251.57 152.329 250.762 153.864C250.362 154.624 250.159 155.392 250.154 156.161V156.22C250.154 156.2 250.154 156.181 250.154 156.161V142.209C250.159 141.44 250.362 140.672 250.762 139.912C251.57 138.377 252.797 137.1 257.538 134.363L262.666 131.403Z" fill="#151515"/>
<path d="M263.403 130.377C263.403 130.761 263.137 131.13 262.666 131.403L257.538 134.363C252.797 137.1 251.57 138.377 250.762 139.912C250.362 140.672 250.159 141.44 250.154 142.209V156.22C250.149 155.432 250.352 154.643 250.762 153.864C251.57 152.329 252.797 151.052 257.538 148.315L262.666 145.355C263.137 145.083 263.403 144.714 263.403 144.329L263.412 139.493C263.412 139.475 263.409 139.458 263.403 139.441V130.377Z" stroke="#151515" stroke-width="2" stroke-linejoin="round"/>
<path d="M258.066 146.314L271.489 154.063C271.725 154.2 272.005 154.306 272.309 154.378V168.33C272.005 168.258 271.725 168.152 271.489 168.016L258.066 160.267C256.132 159.15 255.157 157.69 255.139 156.225V142.273C255.139 142.246 255.139 142.219 255.139 142.191V142.273C255.157 143.738 256.132 145.198 258.066 146.314Z" fill="#F7A1B0"/>
<path d="M271.489 154.063L258.066 146.314C256.096 145.177 255.121 143.683 255.139 142.191V156.225C255.157 157.69 256.132 159.15 258.066 160.267L271.489 168.016C271.725 168.152 272.005 168.258 272.309 168.33V154.378C272.005 154.306 271.725 154.2 271.489 154.063Z" stroke="#151515" stroke-width="2" stroke-linejoin="round"/>
<path d="M255.545 154.496H264.424V168.162C264.42 168.233 264.371 168.304 264.277 168.358C264.183 168.413 264.055 168.443 263.922 168.443L255.545 168.448C255.187 168.448 254.837 168.404 254.518 168.321V154.369C254.837 154.452 255.187 154.496 255.545 154.496Z" fill="#151515"/>
<path d="M264.424 154.496H255.545M255.545 154.496V168.448M255.545 154.496C255.187 154.496 254.837 154.452 254.518 154.369V168.321C254.837 168.404 255.187 168.448 255.545 168.448M255.545 168.448L263.922 168.443C264.055 168.443 264.183 168.413 264.277 168.358C264.371 168.304 264.42 168.233 264.424 168.162V154.191" stroke="#151515" stroke-width="2" stroke-linejoin="round"/>
<path d="M251.421 152.715L253.776 154.075C253.992 154.199 254.244 154.299 254.517 154.37V168.322C254.244 168.251 253.992 168.151 253.776 168.027L251.421 166.667C245.112 163.025 243.482 161.324 242.412 159.279C241.872 158.248 241.605 157.205 241.611 156.161V142.282C241.611 142.258 241.611 142.233 241.611 142.209V142.282C241.618 143.301 241.884 144.32 242.412 145.327C243.482 147.372 245.112 149.073 251.421 152.715Z" fill="#F7A1B0"/>
<path d="M253.776 154.075L251.421 152.715C245.112 149.073 243.482 147.372 242.412 145.327C241.872 144.296 241.605 143.252 241.611 142.209V156.161C241.605 157.205 241.872 158.248 242.412 159.279C243.482 161.324 245.112 163.025 251.421 166.667L253.776 168.027C253.992 168.151 254.244 168.251 254.517 168.322V154.37C254.244 154.299 253.992 154.199 253.776 154.075Z" stroke="#151515" stroke-width="2" stroke-linejoin="round"/>
<path fill-rule="evenodd" clip-rule="evenodd" d="M318.864 140.809L310.488 140.813C309.824 140.814 309.188 140.662 308.719 140.391L303.598 137.435C298.866 134.703 296.656 133.997 293.999 133.534C291.343 133.07 288.625 133.072 285.966 133.538C283.308 134.005 281.096 134.713 276.355 137.45L269.574 141.364C269.378 141.478 269.06 141.478 268.865 141.365C268.771 141.311 268.719 141.238 268.719 141.161L268.727 136.325C268.727 135.941 268.993 135.571 269.465 135.299L271.82 133.939C278.142 130.29 281.091 129.346 284.635 128.724C288.18 128.102 291.804 128.1 295.346 128.718C298.889 129.336 301.835 130.277 308.144 133.919L319.221 140.314C319.417 140.427 319.416 140.61 319.22 140.723C319.125 140.778 318.997 140.809 318.864 140.809Z" fill="#151515" stroke="#151515" stroke-width="2" stroke-linejoin="round"/>
<path d="M303.596 123.484L308.718 126.44C308.956 126.578 309.237 126.684 309.543 126.756V140.708C309.237 140.636 308.956 140.53 308.718 140.392L303.596 137.436C298.864 134.704 296.655 133.998 293.998 133.535C292.706 133.309 291.399 133.194 290.092 133.189V119.236C291.399 119.242 292.706 119.357 293.998 119.583C296.655 120.046 298.864 120.752 303.596 123.484Z" fill="#F7A1B0" stroke="#151515" stroke-width="2" stroke-linejoin="round"/>
<path d="M310.488 126.864L318.864 126.86C318.997 126.86 319.125 126.829 319.22 126.774C319.313 126.721 319.362 126.651 319.367 126.58V140.51C319.372 140.588 319.323 140.667 319.22 140.727C319.125 140.781 318.997 140.812 318.864 140.812L310.488 140.816C310.161 140.817 309.841 140.78 309.544 140.71V126.758C309.841 126.828 310.161 126.864 310.488 126.864Z" fill="#151515"/>
<path d="M276.355 123.501C281.096 120.764 283.308 120.056 285.966 119.589C287.332 119.35 288.713 119.233 290.093 119.238V133.191C288.713 133.185 287.332 133.302 285.966 133.541C283.308 134.008 281.096 134.716 276.355 137.453L269.574 141.367C269.378 141.481 269.06 141.481 268.865 141.368C268.771 141.314 268.719 141.241 268.719 141.164L268.727 127.264C268.745 127.321 268.793 127.374 268.865 127.416C269.06 127.529 269.378 127.529 269.574 127.415L276.355 123.501Z" fill="#151515"/>
<path d="M319.221 140.317C319.314 140.371 319.362 140.44 319.367 140.51M319.367 140.51C319.372 140.588 319.323 140.667 319.22 140.727C319.125 140.781 318.997 140.812 318.864 140.812L310.488 140.816C310.161 140.817 309.841 140.78 309.544 140.71V126.758C309.841 126.828 310.161 126.864 310.488 126.864L318.864 126.86C318.997 126.86 319.125 126.829 319.22 126.774C319.313 126.721 319.362 126.651 319.367 126.58V140.51ZM285.966 119.589C283.308 120.056 281.096 120.764 276.355 123.501L269.574 127.415C269.378 127.529 269.06 127.529 268.865 127.416C268.793 127.374 268.745 127.321 268.727 127.264L268.719 141.164C268.719 141.241 268.771 141.314 268.865 141.368C269.06 141.481 269.378 141.481 269.574 141.367L276.355 137.453C281.096 134.716 283.308 134.008 285.966 133.541C287.332 133.302 288.713 133.185 290.093 133.191V119.238C288.713 119.233 287.332 119.35 285.966 119.589Z" stroke="#151515" stroke-width="2" stroke-linejoin="round"/>
<path fill-rule="evenodd" clip-rule="evenodd" d="M318.864 126.858L310.488 126.862C309.824 126.862 309.188 126.711 308.719 126.44L303.598 123.484C298.866 120.752 296.656 120.046 293.999 119.583C291.343 119.119 288.625 119.121 285.966 119.587C283.308 120.054 281.096 120.762 276.355 123.499L269.574 127.413C269.378 127.526 269.06 127.527 268.865 127.414C268.771 127.36 268.719 127.286 268.719 127.21L268.727 122.374C268.727 121.989 268.993 121.62 269.465 121.348L271.82 119.988C278.142 116.339 281.091 115.395 284.635 114.773C288.18 114.151 291.804 114.149 295.346 114.767C298.889 115.385 301.835 116.326 308.144 119.968L319.221 126.363C319.417 126.476 319.416 126.659 319.22 126.772C319.125 126.827 318.997 126.857 318.864 126.858Z" fill="#F97289" stroke="#151515" stroke-width="2" stroke-linejoin="round"/>
<path fill-rule="evenodd" clip-rule="evenodd" d="M316.484 172.828L316.492 167.992C316.493 167.608 316.758 167.239 317.23 166.966L322.358 164.006C327.099 161.269 328.325 159.992 329.133 158.458C329.941 156.923 329.944 155.354 329.141 153.82C328.338 152.286 327.116 151.011 322.384 148.279L315.617 144.372C315.421 144.259 315.422 144.076 315.618 143.963C315.713 143.908 315.84 143.878 315.974 143.878L324.35 143.873C325.014 143.873 325.65 144.024 326.118 144.295L328.473 145.654C334.783 149.297 336.412 150.997 337.483 153.043C338.554 155.088 338.55 157.18 337.473 159.226C336.395 161.272 334.76 162.975 328.439 166.624L317.339 173.032C317.143 173.145 316.826 173.145 316.63 173.032C316.537 172.978 316.484 172.905 316.484 172.828Z" fill="#151515" stroke="#151515" stroke-width="2" stroke-linejoin="round"/>
<path d="M322.384 134.327C327.116 137.058 328.338 138.334 329.141 139.868C329.486 140.527 329.682 141.193 329.73 141.859V155.811C329.745 156.024 329.745 156.238 329.73 156.451V155.811C329.682 155.145 329.486 154.479 329.141 153.82C328.338 152.286 327.116 151.011 322.384 148.279L315.617 144.372C315.508 144.31 315.46 144.225 315.473 144.144V130.241C315.47 130.224 315.47 130.208 315.473 130.191V130.241C315.482 130.306 315.53 130.37 315.617 130.42L322.384 134.327Z" fill="#F7A1B0"/>
<path d="M329.141 139.868C328.338 138.334 327.116 137.058 322.384 134.327L315.617 130.42C315.508 130.357 315.46 130.273 315.473 130.191V144.144C315.46 144.225 315.508 144.31 315.617 144.372L322.384 148.279C327.116 151.011 328.338 152.286 329.141 153.82C329.596 154.69 329.793 155.571 329.73 156.451V141.859C329.682 141.193 329.486 140.527 329.141 139.868Z" stroke="#151515" stroke-width="2" stroke-linejoin="round"/>
<path d="M328.441 152.672C334.762 149.023 336.397 147.32 337.475 145.274C337.961 144.351 338.228 143.418 338.277 142.484V141.859C338.288 142.068 338.288 142.276 338.277 142.484V155.812C338.337 156.953 338.069 158.097 337.475 159.226C336.397 161.272 334.762 162.975 328.441 166.624L317.342 173.032C317.145 173.145 316.828 173.145 316.632 173.033C316.539 172.979 316.486 172.905 316.486 172.828V158.876C316.486 158.953 316.539 159.026 316.632 159.08C316.828 159.193 317.145 159.193 317.342 159.08L328.441 152.672Z" fill="#151515"/>
<path d="M316.486 158.876C316.486 158.953 316.539 159.026 316.632 159.08C316.828 159.193 317.145 159.193 317.342 159.08L328.441 152.672C334.762 149.023 336.397 147.32 337.475 145.274C338.069 144.145 338.337 143.001 338.277 141.859V155.812C338.337 156.953 338.069 158.097 337.475 159.226C336.397 161.272 334.762 162.975 328.441 166.624L317.342 173.032C317.145 173.145 316.828 173.145 316.632 173.033C316.539 172.979 316.486 172.905 316.486 172.828V158.876Z" stroke="#151515" stroke-width="2" stroke-linejoin="round"/>
<path fill-rule="evenodd" clip-rule="evenodd" d="M316.484 158.877L316.492 154.041C316.493 153.657 316.758 153.288 317.23 153.015L322.358 150.055C327.099 147.318 328.325 146.041 329.133 144.507C329.941 142.972 329.944 141.403 329.141 139.869C328.338 138.335 327.116 137.059 322.384 134.328L315.617 130.421C315.421 130.308 315.422 130.125 315.618 130.012C315.713 129.957 315.84 129.927 315.974 129.927L324.35 129.922C325.014 129.921 325.65 130.073 326.118 130.344L328.473 131.703C334.783 135.346 336.412 137.046 337.483 139.091C338.554 141.136 338.55 143.229 337.473 145.275C336.395 147.321 334.76 149.024 328.439 152.673L317.339 159.081C317.143 159.194 316.826 159.194 316.63 159.081C316.537 159.027 316.484 158.954 316.484 158.877Z" fill="#F97289" stroke="#151515" stroke-width="2" stroke-linejoin="round"/>
<path d="M269.407 171.509L261.03 171.514C260.897 171.514 260.769 171.545 260.675 171.599C260.479 171.713 260.478 171.896 260.674 172.009L271.751 178.403C278.06 182.046 281.006 182.987 284.548 183.605C288.091 184.223 291.715 184.221 295.259 183.599C298.804 182.977 301.753 182.033 308.075 178.383L310.43 177.024C310.902 176.751 311.167 176.382 311.168 175.998L311.176 171.162C311.176 171.085 311.123 171.011 311.03 170.957C310.834 170.845 310.517 170.845 310.321 170.958L303.54 174.873C298.799 177.61 296.587 178.318 293.928 178.784C291.27 179.251 288.552 179.252 285.895 178.789C283.238 178.325 281.029 177.62 276.297 174.888L271.175 171.931C270.707 171.661 270.071 171.509 269.407 171.509Z" fill="#151515" stroke="#151515" stroke-width="2" stroke-linejoin="round"/>
<path d="M271.751 164.454C278.06 168.097 281.006 169.038 284.548 169.656C286.269 169.956 288.008 170.11 289.748 170.117V184.07C288.008 184.062 286.269 183.908 284.548 183.608C281.006 182.99 278.06 182.049 271.751 178.407L260.674 172.012C260.573 171.954 260.525 171.878 260.527 171.802V157.862C260.527 157.858 260.527 157.854 260.527 157.85V157.862C260.53 157.933 260.579 158.005 260.674 158.06L271.751 164.454Z" fill="#F7A1B0"/>
<path d="M260.675 171.602C260.579 171.658 260.53 171.73 260.527 171.802M260.527 171.802C260.525 171.878 260.573 171.954 260.674 172.012L271.751 178.407C278.06 182.049 281.006 182.99 284.548 183.608C286.269 183.908 288.008 184.062 289.748 184.07V170.117C288.008 170.11 286.269 169.956 284.548 169.656C281.006 169.038 278.06 168.097 271.751 164.454L260.674 158.06C260.573 158.002 260.525 157.926 260.527 157.85V171.802Z" stroke="#151515" stroke-width="2" stroke-linejoin="round"/>
<path d="M310.431 163.073C310.903 162.8 311.169 162.431 311.169 162.047V175.999C311.169 176.383 310.903 176.753 310.431 177.025L308.076 178.385C301.755 182.034 298.806 182.978 295.261 183.6C293.438 183.92 291.593 184.076 289.75 184.068V170.116C291.593 170.124 293.438 169.968 295.261 169.648C298.806 169.026 301.755 168.082 308.076 164.433L310.431 163.073Z" fill="#151515" stroke="#151515" stroke-width="2" stroke-linejoin="round"/>
<path d="M269.407 157.558L261.03 157.563C260.897 157.563 260.769 157.594 260.675 157.648C260.479 157.761 260.478 157.945 260.674 158.057L271.751 164.452C278.06 168.095 281.006 169.035 284.548 169.653C288.091 170.272 291.715 170.27 295.259 169.648C298.804 169.026 301.753 168.081 308.075 164.432L310.43 163.072C310.902 162.8 311.167 162.431 311.168 162.046L311.176 157.21C311.176 157.134 311.123 157.06 311.03 157.006C310.834 156.893 310.517 156.894 310.321 157.007L303.54 160.922C298.799 163.659 296.587 164.367 293.928 164.833C291.27 165.3 288.552 165.301 285.895 164.838C283.238 164.374 281.029 163.669 276.297 160.937L271.175 157.98C270.707 157.71 270.071 157.558 269.407 157.558Z" fill="#F97289" stroke="#151515" stroke-width="2" stroke-linejoin="round"/>
<path fill-rule="evenodd" clip-rule="evenodd" d="M301.196 140.835L290.027 140.987C289.271 140.987 288.554 141.084 287.912 141.257C287.375 141.398 286.872 141.595 286.43 141.85L269.556 151.591C269.36 151.704 269.043 151.705 268.847 151.592C268.754 151.538 268.701 151.464 268.701 151.388L268.713 146.549C268.714 146.165 268.979 145.796 269.451 145.524L282.895 137.762C286.811 135.502 293.154 135.498 297.063 137.754L301.542 140.34C301.737 140.453 301.737 140.636 301.54 140.749C301.449 140.802 301.326 140.833 301.196 140.835Z" fill="#F97289" stroke="#151515" stroke-width="2" stroke-linejoin="round"/>
<path d="M290.029 127.036L301.199 126.884C301.328 126.882 301.451 126.852 301.543 126.799C301.639 126.743 301.688 126.671 301.69 126.598V140.542C301.692 140.617 301.643 140.693 301.543 140.751C301.451 140.804 301.328 140.834 301.199 140.836L290.029 140.988C289.273 140.989 288.557 141.086 287.914 141.259V127.307C288.557 127.134 289.273 127.037 290.029 127.036Z" fill="#F7A1B0"/>
<path d="M301.544 140.342C301.64 140.397 301.688 140.469 301.69 140.542M301.69 140.542C301.692 140.617 301.643 140.693 301.543 140.751C301.451 140.804 301.328 140.834 301.199 140.836L290.029 140.988C289.273 140.989 288.557 141.086 287.914 141.259V127.307C288.557 127.134 289.273 127.037 290.029 127.036L301.199 126.884C301.328 126.882 301.451 126.852 301.543 126.799C301.639 126.743 301.688 126.671 301.69 126.598V140.542Z" stroke="#151515" stroke-width="2" stroke-linejoin="round"/>
<path d="M286.43 127.899C286.872 127.644 287.375 127.447 287.912 127.307V141.259C287.375 141.399 286.872 141.596 286.43 141.851L269.556 151.593C269.36 151.706 269.043 151.706 268.847 151.593C268.754 151.539 268.701 151.466 268.701 151.389V137.438C268.701 137.514 268.754 137.587 268.847 137.641C269.043 137.754 269.36 137.754 269.556 137.64L286.43 127.899Z" fill="#151515"/>
<path d="M268.701 151.389C268.701 151.466 268.754 151.539 268.847 151.593C269.043 151.706 269.36 151.706 269.556 151.593L286.43 141.851C286.872 141.596 287.375 141.399 287.912 141.259V127.307C287.375 127.447 286.872 127.644 286.43 127.899L269.556 137.64C269.36 137.754 269.043 137.754 268.847 137.641C268.754 137.587 268.701 137.514 268.701 137.437V151.389ZM268.701 151.389L268.713 146.551" stroke="#151515" stroke-width="2" stroke-linejoin="round"/>
<path fill-rule="evenodd" clip-rule="evenodd" d="M301.196 126.883L290.027 127.036C289.271 127.036 288.554 127.133 287.912 127.306C287.375 127.446 286.872 127.644 286.43 127.899L269.556 137.64C269.36 137.753 269.043 137.754 268.847 137.641C268.754 137.587 268.701 137.513 268.701 137.436L268.713 132.598C268.714 132.214 268.979 131.845 269.451 131.573L282.895 123.811C286.811 121.55 293.154 121.547 297.063 123.803L301.542 126.389C301.737 126.502 301.737 126.685 301.54 126.798C301.449 126.851 301.326 126.882 301.196 126.883Z" fill="#F97289" stroke="#151515" stroke-width="2" stroke-linejoin="round"/>
<path fill-rule="evenodd" clip-rule="evenodd" d="M316.479 162.629L316.237 156.179C316.238 155.742 316.071 155.329 315.772 154.958C315.53 154.648 315.189 154.359 314.749 154.104L297.908 144.382C297.712 144.269 297.713 144.086 297.909 143.973C298.004 143.918 298.132 143.887 298.265 143.887L306.646 143.885C307.309 143.885 307.945 144.036 308.413 144.307L321.836 152.055C325.745 154.312 325.739 157.974 321.823 160.235L317.334 162.825C317.138 162.939 316.821 162.939 316.625 162.826C316.534 162.774 316.482 162.703 316.479 162.629Z" fill="#F97289" stroke="#151515" stroke-width="2" stroke-linejoin="round"/>
<path fill-rule="evenodd" clip-rule="evenodd" d="M316.479 148.677L316.237 142.227C316.238 141.791 316.071 141.378 315.772 141.007C315.53 140.697 315.189 140.407 314.749 140.153L297.908 130.431C297.712 130.318 297.713 130.135 297.909 130.021C298.004 129.967 298.132 129.936 298.265 129.936L306.646 129.934C307.309 129.933 307.945 130.085 308.413 130.355L321.836 138.104C325.745 140.361 325.739 144.023 321.823 146.283L317.334 148.874C317.138 148.988 316.821 148.988 316.625 148.875C316.534 148.823 316.482 148.752 316.479 148.677Z" fill="#F97289" stroke="#151515" stroke-width="2" stroke-linejoin="round"/>
<path d="M315.772 141.007C316.071 141.378 316.238 141.791 316.237 142.227V156.173C316.236 155.739 316.07 155.328 315.772 154.959C315.53 154.649 315.189 154.359 314.749 154.105L297.908 144.383C297.809 144.326 297.76 144.251 297.762 144.175V130.23C297.763 130.303 297.812 130.375 297.908 130.431L314.749 140.153C315.189 140.407 315.53 140.697 315.772 141.007Z" fill="#F7A1B0"/>
<path d="M316.237 142.227C316.238 141.791 316.071 141.378 315.772 141.007C315.53 140.697 315.189 140.407 314.749 140.153L297.908 130.431C297.812 130.375 297.763 130.303 297.762 130.23V144.175C297.76 144.251 297.809 144.326 297.908 144.383L314.749 154.105C315.189 154.359 315.53 154.649 315.772 154.959C316.071 155.33 316.238 155.743 316.237 156.18V142.227Z" stroke="#151515" stroke-width="2" stroke-linejoin="round"/>
<path d="M316.238 142.229L316.481 148.679C316.483 148.753 316.536 148.824 316.627 148.876C316.822 148.989 317.14 148.989 317.336 148.875L321.824 146.284C323.766 145.163 324.747 143.697 324.765 142.229V156.181C324.747 157.649 323.766 159.115 321.824 160.237L317.336 162.828C317.14 162.941 316.822 162.941 316.627 162.828C316.536 162.776 316.483 162.705 316.481 162.631L316.238 156.181V142.229Z" fill="#151515" stroke="#151515" stroke-width="2" stroke-linejoin="round"/>
<path fill-rule="evenodd" clip-rule="evenodd" d="M318.866 126.858L310.49 126.862C309.826 126.862 309.19 126.711 308.721 126.44L303.6 123.484C298.868 120.752 296.658 120.046 294.001 119.583C291.345 119.119 288.626 119.121 285.968 119.587C283.31 120.054 281.098 120.762 276.357 123.499L269.576 127.413C269.38 127.526 269.062 127.527 268.867 127.414C268.773 127.36 268.721 127.286 268.721 127.21L268.729 122.374C268.729 121.989 268.995 121.62 269.467 121.348L271.822 119.988C278.143 116.339 281.093 115.395 284.637 114.773C288.182 114.151 291.806 114.149 295.348 114.767C298.891 115.385 301.837 116.326 308.146 119.968L319.223 126.363C319.419 126.476 319.418 126.659 319.222 126.772C319.127 126.827 318.999 126.857 318.866 126.858Z" fill="#F97289"/>
<path fill-rule="evenodd" clip-rule="evenodd" d="M316.484 158.877L316.492 154.041C316.493 153.657 316.758 153.288 317.23 153.015L322.358 150.055C327.099 147.318 328.325 146.041 329.133 144.507C329.941 142.972 329.944 141.403 329.141 139.869C328.338 138.335 327.116 137.059 322.384 134.328L315.617 130.421C315.421 130.308 315.422 130.125 315.618 130.012C315.713 129.957 315.84 129.927 315.974 129.927L324.35 129.922C325.014 129.922 325.65 130.073 326.119 130.344L328.473 131.703C334.783 135.346 336.412 137.046 337.483 139.091C338.554 141.136 338.55 143.229 337.473 145.275C336.395 147.321 334.76 149.024 328.439 152.673L317.339 159.081C317.143 159.194 316.826 159.194 316.63 159.081C316.537 159.027 316.484 158.954 316.484 158.877Z" fill="#F97289"/>
<path fill-rule="evenodd" clip-rule="evenodd" d="M261.028 157.561L269.405 157.556C270.069 157.556 270.705 157.707 271.173 157.978L276.295 160.935C281.027 163.666 283.236 164.372 285.893 164.835C288.55 165.299 291.268 165.298 293.926 164.831C296.585 164.365 298.797 163.657 303.538 160.92L310.319 157.005C310.515 156.892 310.832 156.891 311.028 157.004C311.121 157.058 311.174 157.132 311.174 157.208L311.166 162.044C311.165 162.429 310.9 162.798 310.428 163.07L308.072 164.43C301.751 168.079 298.802 169.023 295.257 169.645C291.713 170.267 288.089 170.269 284.546 169.651C281.004 169.033 278.058 168.092 271.748 164.45L260.671 158.055C260.476 157.943 260.477 157.759 260.673 157.646C260.767 157.591 260.895 157.561 261.028 157.561Z" fill="#F97289"/>
<path fill-rule="evenodd" clip-rule="evenodd" d="M263.411 125.541L263.402 130.377C263.402 130.762 263.137 131.131 262.665 131.403L257.537 134.363C252.796 137.1 251.569 138.377 250.761 139.912C249.953 141.447 249.951 143.016 250.754 144.55C251.557 146.083 252.779 147.359 257.511 150.091L264.278 153.997C264.473 154.11 264.473 154.293 264.276 154.407C264.182 154.461 264.054 154.492 263.921 154.492L255.545 154.496C254.881 154.497 254.245 154.345 253.776 154.075L251.421 152.715C245.112 149.073 243.482 147.372 242.412 145.327C241.341 143.282 241.345 141.19 242.422 139.144C243.499 137.097 245.135 135.395 251.456 131.745L262.555 125.338C262.752 125.225 263.069 125.224 263.265 125.337C263.358 125.391 263.411 125.465 263.411 125.541Z" fill="#F97289"/>
<path fill-rule="evenodd" clip-rule="evenodd" d="M301.194 126.882L290.025 127.034C289.269 127.035 288.552 127.132 287.91 127.305C287.373 127.445 286.87 127.643 286.428 127.897L269.554 137.639C269.358 137.752 269.041 137.752 268.845 137.64C268.752 137.586 268.699 137.512 268.699 137.435L268.711 132.597C268.712 132.213 268.977 131.844 269.449 131.572L282.893 123.81C286.809 121.549 293.152 121.546 297.061 123.802L301.54 126.388C301.735 126.501 301.735 126.684 301.538 126.797C301.447 126.85 301.324 126.88 301.194 126.882Z" fill="#F97289"/>
<path fill-rule="evenodd" clip-rule="evenodd" d="M316.478 148.677L316.236 142.227C316.237 141.791 316.07 141.378 315.771 141.007C315.529 140.697 315.188 140.407 314.748 140.153L297.907 130.431C297.711 130.318 297.712 130.135 297.908 130.021C298.003 129.967 298.131 129.936 298.264 129.936L306.645 129.933C307.308 129.933 307.944 130.085 308.412 130.355L321.835 138.104C325.744 140.361 325.737 144.022 321.821 146.283L317.333 148.874C317.137 148.987 316.819 148.988 316.624 148.875C316.533 148.822 316.481 148.752 316.478 148.677Z" fill="#F97289"/>
<path fill-rule="evenodd" clip-rule="evenodd" d="M278.701 157.535L289.87 157.383C290.626 157.383 291.342 157.286 291.985 157.113C292.522 156.972 293.025 156.775 293.466 156.52L310.34 146.779C310.537 146.666 310.854 146.665 311.05 146.778C311.143 146.832 311.196 146.906 311.196 146.982L311.184 151.821C311.183 152.205 310.918 152.574 310.446 152.846L297.001 160.608C293.085 162.868 286.742 162.872 282.834 160.616L278.355 158.03C278.16 157.917 278.16 157.734 278.356 157.621C278.448 157.568 278.571 157.537 278.701 157.535Z" fill="#F97289"/>
<path fill-rule="evenodd" clip-rule="evenodd" d="M263.42 135.742L263.662 142.192C263.662 142.629 263.828 143.042 264.127 143.413C264.369 143.722 264.71 144.013 265.15 144.267L281.991 153.989C282.187 154.102 282.186 154.285 281.99 154.398C281.895 154.453 281.767 154.484 281.634 154.484L273.254 154.486C272.59 154.486 271.954 154.335 271.486 154.064L258.063 146.316C254.155 144.059 254.161 140.397 258.077 138.137L262.565 135.546C262.761 135.432 263.079 135.432 263.274 135.545C263.365 135.597 263.417 135.668 263.42 135.742Z" fill="#F97289"/>
<path fill-rule="evenodd" clip-rule="evenodd" d="M318.866 126.858L310.49 126.862C309.826 126.862 309.19 126.711 308.721 126.44L303.6 123.484C298.868 120.752 296.658 120.046 294.001 119.583C291.345 119.119 288.626 119.121 285.968 119.587C283.31 120.054 281.098 120.762 276.357 123.499L269.576 127.413C269.38 127.526 269.062 127.527 268.867 127.414C268.773 127.36 268.721 127.286 268.721 127.21L268.729 122.374C268.729 121.989 268.995 121.62 269.467 121.348L271.822 119.988C278.143 116.339 281.093 115.395 284.637 114.773C288.182 114.151 291.806 114.149 295.348 114.767C298.891 115.385 301.837 116.326 308.146 119.968L319.223 126.363C319.419 126.476 319.418 126.659 319.222 126.772C319.127 126.827 318.999 126.857 318.866 126.858Z" stroke="#151515" stroke-width="2" stroke-linejoin="round"/>
<path fill-rule="evenodd" clip-rule="evenodd" d="M316.484 158.877L316.492 154.041C316.493 153.657 316.758 153.288 317.23 153.015L322.358 150.055C327.099 147.318 328.325 146.041 329.133 144.507C329.941 142.972 329.944 141.403 329.141 139.869C328.338 138.335 327.116 137.059 322.384 134.328L315.617 130.421C315.421 130.308 315.422 130.125 315.618 130.012C315.713 129.957 315.84 129.927 315.974 129.927L324.35 129.922C325.014 129.922 325.65 130.073 326.119 130.344L328.473 131.703C334.783 135.346 336.412 137.046 337.483 139.091C338.554 141.136 338.55 143.229 337.473 145.275C336.395 147.321 334.76 149.024 328.439 152.673L317.339 159.081C317.143 159.194 316.826 159.194 316.63 159.081C316.537 159.027 316.484 158.954 316.484 158.877Z" stroke="#151515" stroke-width="2" stroke-linejoin="round"/>
<path fill-rule="evenodd" clip-rule="evenodd" d="M261.028 157.561L269.405 157.556C270.069 157.556 270.705 157.707 271.173 157.978L276.295 160.935C281.027 163.666 283.236 164.372 285.893 164.835C288.55 165.299 291.268 165.298 293.926 164.831C296.585 164.365 298.797 163.657 303.538 160.92L310.319 157.005C310.515 156.892 310.832 156.891 311.028 157.004C311.121 157.058 311.174 157.132 311.174 157.208L311.166 162.044C311.165 162.429 310.9 162.798 310.428 163.07L308.072 164.43C301.751 168.079 298.802 169.023 295.257 169.645C291.713 170.267 288.089 170.269 284.546 169.651C281.004 169.033 278.058 168.092 271.748 164.45L260.671 158.055C260.476 157.943 260.477 157.759 260.673 157.646C260.767 157.591 260.895 157.561 261.028 157.561Z" stroke="#151515" stroke-width="2" stroke-linejoin="round"/>
<path fill-rule="evenodd" clip-rule="evenodd" d="M263.411 125.541L263.402 130.377C263.402 130.762 263.137 131.131 262.665 131.403L257.537 134.363C252.796 137.1 251.569 138.377 250.761 139.912C249.953 141.447 249.951 143.016 250.754 144.55C251.557 146.083 252.779 147.359 257.511 150.091L264.278 153.997C264.473 154.11 264.473 154.293 264.276 154.407C264.182 154.461 264.054 154.492 263.921 154.492L255.545 154.496C254.881 154.497 254.245 154.345 253.776 154.075L251.421 152.715C245.112 149.073 243.482 147.372 242.412 145.327C241.341 143.282 241.345 141.19 242.422 139.144C243.499 137.097 245.135 135.395 251.456 131.745L262.555 125.338C262.752 125.225 263.069 125.224 263.265 125.337C263.358 125.391 263.411 125.465 263.411 125.541Z" stroke="#151515" stroke-width="2" stroke-linejoin="round"/>
<path fill-rule="evenodd" clip-rule="evenodd" d="M301.194 126.882L290.025 127.034C289.269 127.035 288.552 127.132 287.91 127.305C287.373 127.445 286.87 127.643 286.428 127.897L269.554 137.639C269.358 137.752 269.041 137.752 268.845 137.64C268.752 137.586 268.699 137.512 268.699 137.435L268.711 132.597C268.712 132.213 268.977 131.844 269.449 131.572L282.893 123.81C286.809 121.549 293.152 121.546 297.061 123.802L301.54 126.388C301.735 126.501 301.735 126.684 301.538 126.797C301.447 126.85 301.324 126.88 301.194 126.882Z" stroke="#151515" stroke-width="2" stroke-linejoin="round"/>
<path fill-rule="evenodd" clip-rule="evenodd" d="M316.478 148.677L316.236 142.227C316.237 141.791 316.07 141.378 315.771 141.007C315.529 140.697 315.188 140.407 314.748 140.153L297.907 130.431C297.711 130.318 297.712 130.135 297.908 130.021C298.003 129.967 298.131 129.936 298.264 129.936L306.645 129.933C307.308 129.933 307.944 130.085 308.412 130.355L321.835 138.104C325.744 140.361 325.737 144.022 321.821 146.283L317.333 148.874C317.137 148.987 316.819 148.988 316.624 148.875C316.533 148.822 316.481 148.752 316.478 148.677Z" stroke="#151515" stroke-width="2" stroke-linejoin="round"/>
<path fill-rule="evenodd" clip-rule="evenodd" d="M278.701 157.535L289.87 157.383C290.626 157.383 291.342 157.286 291.985 157.113C292.522 156.972 293.025 156.775 293.466 156.52L310.34 146.779C310.537 146.666 310.854 146.665 311.05 146.778C311.143 146.832 311.196 146.906 311.196 146.982L311.184 151.821C311.183 152.205 310.918 152.574 310.446 152.846L297.001 160.608C293.085 162.868 286.742 162.872 282.834 160.616L278.355 158.03C278.16 157.917 278.16 157.734 278.356 157.621C278.448 157.568 278.571 157.537 278.701 157.535Z" stroke="#151515" stroke-width="2" stroke-linejoin="round"/>
<path fill-rule="evenodd" clip-rule="evenodd" d="M263.42 135.742L263.662 142.192C263.662 142.629 263.828 143.042 264.127 143.413C264.369 143.722 264.71 144.013 265.15 144.267L281.991 153.989C282.187 154.102 282.186 154.285 281.99 154.398C281.895 154.453 281.767 154.484 281.634 154.484L273.254 154.486C272.59 154.486 271.954 154.335 271.486 154.064L258.063 146.316C254.155 144.059 254.161 140.397 258.077 138.137L262.565 135.546C262.761 135.432 263.079 135.432 263.274 135.545C263.365 135.597 263.417 135.668 263.42 135.742Z" stroke="#151515" stroke-width="2" stroke-linejoin="round"/>
<path d="M175.744 73.209L223.825 99.48L209.104 107.403L161.023 81.132L175.744 73.209Z" fill="#151515" stroke="#151515" stroke-width="2" stroke-linejoin="round"/>
<path d="M175.744 69.873L223.825 96.144L209.104 104.067L161.023 77.796L175.744 69.873Z" fill="#F7A1B0" stroke="#151515" stroke-width="2" stroke-linejoin="round"/>
<path d="M209.104 104.066L223.824 96.1426V102.815L209.104 110.738V104.066Z" fill="#F7A1B0" stroke="#151515" stroke-width="2" stroke-linejoin="round"/>
<path d="M161.023 77.7949L209.104 104.066V110.738L161.023 84.4669V77.7949Z" fill="#151515" stroke="#151515" stroke-width="2" stroke-linejoin="round"/>
<path d="M210.669 55.1907C212.551 54.1043 215.603 54.1059 217.481 55.1944L252.457 75.4624C254.208 76.4767 254.318 78.0965 252.712 79.1873C250.909 80.412 247.679 80.4874 245.71 79.3508L210.669 59.1201C208.79 58.035 208.79 56.2758 210.669 55.1907Z" fill="#151515" stroke="#151515" stroke-width="2" stroke-linejoin="round"/>
<path d="M210.669 51.8548C212.551 50.7683 215.603 50.77 217.481 51.8584L252.457 72.1265C254.208 73.1408 254.318 74.7605 252.712 75.8514C250.909 77.0761 247.679 77.1515 245.71 76.0148L210.669 55.7841C208.79 54.6991 208.79 52.9399 210.669 51.8548Z" fill="#F7A1B0" stroke="#151515" stroke-width="2" stroke-linejoin="round"/>
<path d="M210.669 55.7851L245.71 76.0158V82.6878L210.669 62.4571C209.771 61.9384 209.302 61.2657 209.262 60.5862L209.26 53.834C209.266 54.5405 209.736 55.246 210.669 55.7851Z" fill="#151515" stroke="#151515" stroke-width="2" stroke-linejoin="round"/>
<path d="M245.711 76.0154C247.68 77.1521 250.91 77.0767 252.713 75.852C253.447 75.3539 253.822 74.7454 253.847 74.1348V80.8068C253.822 81.4174 253.447 82.0259 252.713 82.524C250.91 83.7487 247.68 83.8241 245.711 82.6874V76.0154Z" fill="#F7A1B0" stroke="#151515" stroke-width="2" stroke-linejoin="round"/>
<path d="M194.82 64.0736C196.701 62.9871 199.753 62.9887 201.632 64.0772L236.608 84.3452C238.358 85.3595 238.469 86.9793 236.862 88.0701C235.059 89.2949 231.829 89.3703 229.86 88.2336L194.82 68.0029C192.94 66.9178 192.94 65.1586 194.82 64.0736Z" fill="#151515" stroke="#151515" stroke-width="2" stroke-linejoin="round"/>
<path d="M194.82 60.7376C196.701 59.6511 199.753 59.6528 201.632 60.7412L236.608 81.0093C238.358 82.0236 238.469 83.6433 236.862 84.7342C235.059 85.9589 231.829 86.0343 229.86 84.8976L194.82 64.6669C192.94 63.5819 192.94 61.8227 194.82 60.7376Z" fill="#F7A1B0" stroke="#151515" stroke-width="2" stroke-linejoin="round"/>
<path d="M194.82 64.6679L229.86 84.8986V91.5706L194.82 71.3399C193.921 70.8212 193.452 70.1485 193.413 69.469L193.41 62.7168C193.416 63.4233 193.886 64.1288 194.82 64.6679Z" fill="#151515" stroke="#151515" stroke-width="2" stroke-linejoin="round"/>
<path d="M229.861 84.8983C231.83 86.0349 235.06 85.9595 236.863 84.7348C237.597 84.2367 237.972 83.6283 237.997 83.0176V89.6896C237.972 90.3003 237.597 90.9087 236.863 91.4068C235.06 92.6315 231.83 92.7069 229.861 91.5702V84.8983Z" fill="#F7A1B0" stroke="#151515" stroke-width="2" stroke-linejoin="round"/>
<path d="M226.513 44.1497C228.395 43.0633 231.447 43.0649 233.325 44.1534L268.301 64.4214C270.051 65.4357 270.162 67.0554 268.556 68.1463C266.752 69.371 263.522 69.4464 261.554 68.3098L226.513 48.079C224.634 46.994 224.634 45.2348 226.513 44.1497Z" fill="#151515" stroke="#151515" stroke-width="2" stroke-linejoin="round"/>
<path d="M226.513 40.8138C228.395 39.7273 231.447 39.7289 233.325 40.8174L268.301 61.0855C270.051 62.0998 270.162 63.7195 268.556 64.8104C266.752 66.0351 263.522 66.1105 261.554 64.9738L226.513 44.7431C224.634 43.6581 224.634 41.8988 226.513 40.8138Z" fill="#F7A1B0" stroke="#151515" stroke-width="2" stroke-linejoin="round"/>
<path d="M226.513 44.7441L261.554 64.9748V71.6468L226.513 51.4161C225.615 50.8974 225.146 50.2247 225.106 49.5452L225.104 42.793C225.109 43.4995 225.579 44.205 226.513 44.7441Z" fill="#151515" stroke="#151515" stroke-width="2" stroke-linejoin="round"/>
<path d="M261.555 64.9744C263.523 66.1111 266.753 66.0357 268.557 64.811C269.29 64.3128 269.666 63.7044 269.691 63.0938V69.7657C269.666 70.3764 269.29 70.9848 268.557 71.483C266.753 72.7077 263.523 72.7831 261.555 71.6464V64.9744Z" fill="#F7A1B0" stroke="#151515" stroke-width="2" stroke-linejoin="round"/>
</g>
<defs>
<clipPath id="clip0_1016_4711">
<rect width="516" height="290" fill="white" transform="translate(0.5)"/>
</clipPath>
</defs>
</svg>
