<svg width="517" height="290" viewBox="0 0 517 290" fill="none" xmlns="http://www.w3.org/2000/svg">
<g clip-path="url(#clip0_1076_2709)">
<rect width="516" height="290" transform="translate(0.5)" fill="#FEF1E9"/>
<rect width="483.187" height="79.5202" transform="matrix(0.866025 0.5 -0.866025 0.5 61.7031 -240)" fill="#ED6B22" stroke="#151515" stroke-width="2" stroke-linecap="round" stroke-linejoin="round"/>
<rect width="483.187" height="81.5592" transform="matrix(0.866025 0.5 -0.866025 0.5 -7.16016 -200.24)" fill="#FEF1E9" stroke="#151515" stroke-width="2" stroke-linecap="round" stroke-linejoin="round" stroke-dasharray="6 6"/>
<rect width="483.187" height="222.249" transform="matrix(0.866025 0.5 -0.866025 0.5 -306.523 -214)" fill="#F39A68" stroke="#151515" stroke-width="2" stroke-linecap="round" stroke-linejoin="round"/>
<rect width="483.187" height="79.5202" transform="matrix(0.866025 0.5 0.866025 -0.5 38.791 289.137)" fill="#ED6B22" stroke="#151515" stroke-width="2" stroke-linecap="round" stroke-linejoin="round"/>
<rect width="483.187" height="81.5592" transform="matrix(0.866025 0.5 0.866025 -0.5 107.654 249.379)" fill="#FEF1E9" stroke="#151515" stroke-width="2" stroke-linecap="round" stroke-linejoin="round" stroke-dasharray="6 6"/>
<rect width="452.047" height="207.925" transform="matrix(0.866025 0.5 0.866025 -0.5 401.391 258.484)" fill="#F39A68" stroke="#151515" stroke-width="2" stroke-linecap="round" stroke-linejoin="round"/>
<path fill-rule="evenodd" clip-rule="evenodd" d="M35.5834 150.085C23.8531 156.857 23.8531 167.838 35.5834 174.61L237.866 291.398C249.596 298.171 268.615 298.171 280.345 291.398L482.628 174.61C494.358 167.838 494.358 156.857 482.628 150.085L280.345 33.2971C268.615 26.5245 249.596 26.5245 237.866 33.2971L35.5834 150.085ZM126.611 150.085C114.88 156.857 114.88 167.838 126.611 174.61L237.866 238.844C249.596 245.616 268.615 245.616 280.345 238.844L391.601 174.61C403.331 167.838 403.331 156.857 391.601 150.085L280.345 85.8516C268.615 79.0791 249.596 79.0791 237.866 85.8516L126.611 150.085Z" stroke="#151515" stroke-width="2" stroke-linecap="round" stroke-linejoin="round" stroke-dasharray="6 6"/>
<path d="M27.2285 162.347L27.2285 126.143" stroke="#151515" stroke-width="2" stroke-linecap="round" stroke-linejoin="round" stroke-dasharray="6 6"/>
<path d="M492.041 162.347L492.041 126.143" stroke="#151515" stroke-width="2" stroke-linecap="round" stroke-linejoin="round" stroke-dasharray="6 6"/>
<path fill-rule="evenodd" clip-rule="evenodd" d="M35.5815 115.05C23.8511 121.822 23.8511 132.803 35.5815 139.575L237.864 256.363C249.594 263.136 268.613 263.136 280.343 256.363L482.626 139.575C494.356 132.803 494.356 121.822 482.626 115.05L280.343 -1.7381C268.613 -8.51062 249.594 -8.51062 237.864 -1.7381L35.5815 115.05ZM126.609 115.05C114.878 121.822 114.878 132.803 126.609 139.575L237.864 203.809C249.594 210.581 268.613 210.581 280.343 203.809L391.599 139.575C403.329 132.803 403.329 121.822 391.599 115.05L280.343 50.8164C268.613 44.0439 249.594 44.0439 237.864 50.8164L126.609 115.05Z" fill="#ED6B22" stroke="#151515" stroke-width="2" stroke-linecap="round" stroke-linejoin="round"/>
<path fill-rule="evenodd" clip-rule="evenodd" d="M212.968 127.604L213.389 138.832C213.388 139.591 213.678 140.311 214.198 140.956C214.619 141.495 215.213 142 215.98 142.443L245.295 159.367C245.635 159.563 245.634 159.882 245.292 160.079C245.128 160.174 244.905 160.228 244.673 160.228L230.085 160.232C228.93 160.233 227.823 159.968 227.008 159.498L203.643 146.009C196.839 142.081 196.85 135.707 203.666 131.772L211.479 127.262C211.821 127.064 212.373 127.064 212.713 127.26C212.872 127.352 212.963 127.475 212.968 127.604Z" fill="#ED6B22" stroke="#151515" stroke-width="2" stroke-linejoin="round"/>
<path d="M203.643 121.722L227.008 135.211C227.42 135.449 227.906 135.634 228.436 135.759V160.045C227.906 159.921 227.42 159.735 227.008 159.498L203.643 146.009C200.276 144.066 198.578 141.523 198.547 138.974V114.687C198.547 114.64 198.547 114.592 198.547 114.545V114.687C198.578 117.236 200.276 119.779 203.643 121.722Z" fill="#F39A68"/>
<path d="M227.008 135.211L203.643 121.722C200.214 119.743 198.516 117.142 198.547 114.545V138.974C198.578 141.523 200.276 144.066 203.643 146.009L227.008 159.498C227.42 159.735 227.906 159.921 228.436 160.045V135.759C227.906 135.634 227.42 135.449 227.008 135.211Z" stroke="#151515" stroke-width="2" stroke-linejoin="round"/>
<path d="M244.673 135.939C244.905 135.939 245.127 135.885 245.292 135.79C245.444 135.703 245.528 135.591 245.545 135.477V135.389C245.55 135.418 245.55 135.448 245.545 135.477V159.675C245.567 159.819 245.483 159.967 245.292 160.077C245.127 160.172 244.905 160.225 244.673 160.225L230.085 160.23C229.513 160.23 228.954 160.165 228.436 160.043V135.757C228.954 135.879 229.513 135.944 230.085 135.943L244.673 135.939Z" fill="#151515"/>
<path d="M245.292 135.79C245.127 135.885 244.905 135.939 244.673 135.939L230.085 135.943C229.513 135.944 228.954 135.879 228.436 135.757V160.043C228.954 160.165 229.513 160.23 230.085 160.23L244.673 160.225C244.905 160.225 245.127 160.172 245.292 160.077C245.483 159.967 245.567 159.819 245.545 159.675V135.389C245.567 135.532 245.483 135.68 245.292 135.79Z" stroke="#151515" stroke-width="2" stroke-linejoin="round"/>
<path fill-rule="evenodd" clip-rule="evenodd" d="M212.968 103.317L213.389 114.545C213.388 115.304 213.678 116.024 214.198 116.669C214.619 117.208 215.213 117.713 215.98 118.156L245.295 135.08C245.635 135.276 245.634 135.595 245.292 135.792C245.128 135.887 244.905 135.94 244.673 135.94L230.085 135.945C228.93 135.945 227.823 135.681 227.008 135.211L203.643 121.722C196.839 117.794 196.85 111.42 203.666 107.485L211.479 102.974C211.821 102.777 212.373 102.777 212.713 102.973C212.872 103.064 212.963 103.188 212.968 103.317Z" fill="#ED6B22" stroke="#151515" stroke-width="2" stroke-linejoin="round"/>
<path fill-rule="evenodd" clip-rule="evenodd" d="M239.565 165.541L259.008 165.276C260.323 165.275 261.571 165.106 262.69 164.804C263.624 164.56 264.5 164.217 265.268 163.773L294.641 146.816C294.983 146.619 295.536 146.618 295.876 146.815C296.039 146.909 296.13 147.037 296.13 147.171L296.11 155.593C296.108 156.262 295.646 156.904 294.825 157.378L271.422 170.888C264.605 174.824 253.563 174.83 246.76 170.902L238.963 166.401C238.623 166.205 238.624 165.886 238.966 165.689C239.125 165.597 239.34 165.544 239.565 165.541Z" fill="#ED6B22" stroke="#151515" stroke-width="2" stroke-linejoin="round"/>
<path d="M294.826 133.09C295.646 132.616 296.109 131.974 296.11 131.305L296.13 147.169L296.11 155.591C296.109 156.26 295.646 156.902 294.826 157.376L271.423 170.886C267.995 172.865 263.498 173.851 259.01 173.842V149.555C263.498 149.564 267.995 148.579 271.423 146.6L294.826 133.09Z" fill="#151515" stroke="#151515" stroke-width="2" stroke-linejoin="round"/>
<path d="M238.963 142.114L246.76 146.615C250.142 148.567 254.571 149.547 259.008 149.556V173.842C254.571 173.834 250.142 172.853 246.76 170.901L238.963 166.4C238.788 166.299 238.704 166.165 238.709 166.032V141.771C238.715 141.896 238.799 142.019 238.963 142.114Z" fill="#F39A68" stroke="#151515" stroke-width="2" stroke-linejoin="round"/>
<path fill-rule="evenodd" clip-rule="evenodd" d="M239.565 141.253L259.008 140.989C260.323 140.988 261.571 140.819 262.69 140.517C263.624 140.273 264.5 139.93 265.268 139.486L294.641 122.529C294.983 122.332 295.536 122.331 295.876 122.528C296.039 122.622 296.13 122.75 296.13 122.883L296.11 131.306C296.108 131.975 295.646 132.617 294.825 133.091L271.422 146.601C264.605 150.537 253.563 150.543 246.76 146.615L238.963 142.114C238.623 141.918 238.624 141.599 238.966 141.402C239.125 141.31 239.34 141.256 239.565 141.253Z" fill="#ED6B22" stroke="#151515" stroke-width="2" stroke-linejoin="round"/>
<path d="M211.648 95.7641C212.469 95.29 212.931 94.6477 212.932 93.9785V109.756C212.942 109.786 212.946 109.816 212.946 109.847L212.932 118.265C212.931 118.935 212.469 119.577 211.648 120.051L202.722 125.204C194.469 129.968 192.334 132.191 190.927 134.863C190.231 136.186 189.878 137.524 189.869 138.861V138.964C189.869 138.93 189.869 138.895 189.869 138.861V114.574C189.878 113.237 190.231 111.899 190.927 110.576C192.334 107.904 194.469 105.681 202.722 100.917L211.648 95.7641Z" fill="#151515"/>
<path d="M212.932 93.9785C212.931 94.6477 212.469 95.29 211.648 95.7641L202.722 100.917C194.469 105.681 192.334 107.904 190.927 110.576C190.231 111.899 189.878 113.237 189.869 114.574V138.964C189.86 137.592 190.213 136.22 190.927 134.863C192.334 132.191 194.469 129.968 202.722 125.204L211.648 120.051C212.469 119.577 212.931 118.935 212.932 118.265L212.946 109.847C212.946 109.816 212.942 109.786 212.932 109.756V93.9785Z" stroke="#151515" stroke-width="2" stroke-linejoin="round"/>
<path d="M203.641 121.722L227.006 135.211C227.418 135.449 227.904 135.634 228.434 135.759V160.045C227.904 159.921 227.418 159.735 227.006 159.498L203.641 146.009C200.274 144.066 198.576 141.523 198.545 138.974V114.687C198.545 114.64 198.545 114.592 198.545 114.545V114.687C198.576 117.236 200.274 119.779 203.641 121.722Z" fill="#F39A68"/>
<path d="M227.006 135.211L203.641 121.722C200.212 119.743 198.514 117.142 198.545 114.545V138.974C198.576 141.523 200.274 144.066 203.641 146.009L227.006 159.498C227.418 159.735 227.904 159.921 228.434 160.045V135.759C227.904 135.634 227.418 135.449 227.006 135.211Z" stroke="#151515" stroke-width="2" stroke-linejoin="round"/>
<path d="M199.256 135.963H214.711V159.751C214.705 159.875 214.619 159.998 214.455 160.093C214.29 160.188 214.068 160.241 213.836 160.242L199.256 160.25C198.632 160.25 198.024 160.173 197.467 160.029V135.743C198.024 135.887 198.632 135.964 199.256 135.963Z" fill="#151515"/>
<path d="M214.711 135.963H199.256M199.256 135.963V160.25M199.256 135.963C198.632 135.964 198.024 135.887 197.467 135.743V160.029C198.024 160.173 198.632 160.25 199.256 160.25M199.256 160.25L213.836 160.242C214.068 160.241 214.29 160.188 214.455 160.093C214.619 159.998 214.705 159.875 214.711 159.751V135.434" stroke="#151515" stroke-width="2" stroke-linejoin="round"/>
<path d="M192.077 132.863L196.175 135.229C196.551 135.446 196.989 135.619 197.465 135.743V160.03C196.989 159.906 196.551 159.733 196.175 159.516L192.077 157.15C181.094 150.809 178.257 147.849 176.393 144.289C175.453 142.493 174.989 140.677 175 138.861V114.702C175 114.659 175 114.617 175 114.574V114.702C175.011 116.476 175.475 118.249 176.393 120.002C178.257 123.562 181.094 126.522 192.077 132.863Z" fill="#F39A68"/>
<path d="M196.175 135.229L192.077 132.863C181.094 126.522 178.257 123.562 176.393 120.002C175.453 118.207 174.989 116.39 175 114.574V138.861C174.989 140.677 175.453 142.493 176.393 144.289C178.257 147.849 181.094 150.809 192.077 157.15L196.175 159.516C196.551 159.733 196.989 159.906 197.465 160.03V135.743C196.989 135.619 196.551 135.446 196.175 135.229Z" stroke="#151515" stroke-width="2" stroke-linejoin="round"/>
<path fill-rule="evenodd" clip-rule="evenodd" d="M309.477 112.138L294.896 112.146C293.74 112.147 292.633 111.882 291.817 111.412L282.902 106.265C274.665 101.51 270.819 100.281 266.194 99.4745C261.569 98.6675 256.838 98.6702 252.211 99.4821C247.583 100.294 243.733 101.527 235.48 106.291L223.676 113.105C223.335 113.302 222.782 113.303 222.442 113.107C222.279 113.013 222.187 112.885 222.188 112.751L222.201 104.333C222.203 103.664 222.665 103.022 223.486 102.547L227.586 100.181C238.59 93.8279 243.724 92.1845 249.894 91.1017C256.064 90.019 262.372 90.0156 268.539 91.0916C274.705 92.1673 279.834 93.805 290.816 100.145L310.098 111.277C310.439 111.473 310.438 111.792 310.096 111.99C309.932 112.084 309.709 112.138 309.477 112.138Z" fill="#151515" stroke="#151515" stroke-width="2" stroke-linejoin="round"/>
<path d="M282.904 81.9772L291.819 87.1238C292.233 87.3628 292.722 87.5486 293.254 87.6735V111.96C292.722 111.835 292.233 111.649 291.819 111.41L282.904 106.264C274.667 101.508 270.821 100.28 266.196 99.4733C263.947 99.0807 261.672 98.8798 259.396 98.8703V74.584C261.672 74.5934 263.947 74.7944 266.196 75.1869C270.821 75.9937 274.667 77.2221 282.904 81.9772Z" fill="#F39A68" stroke="#151515" stroke-width="2" stroke-linejoin="round"/>
<path d="M294.896 87.8588L309.477 87.8509C309.709 87.8506 309.932 87.7972 310.096 87.7024C310.258 87.6086 310.344 87.4871 310.352 87.3644V111.612C310.361 111.748 310.276 111.885 310.096 111.989C309.932 112.084 309.709 112.138 309.477 112.138L294.896 112.146C294.327 112.146 293.77 112.082 293.253 111.961V87.6741C293.77 87.7953 294.327 87.8591 294.896 87.8588Z" fill="#151515"/>
<path d="M235.48 82.004C243.733 77.2396 247.583 76.007 252.211 75.1949C254.587 74.7779 256.992 74.5743 259.395 74.5843V98.8712C256.992 98.8612 254.587 99.0648 252.211 99.4818C247.583 100.294 243.733 101.527 235.48 106.291L223.676 113.105C223.335 113.302 222.782 113.303 222.442 113.106C222.279 113.012 222.187 112.884 222.188 112.751L222.201 88.554C222.233 88.654 222.316 88.7468 222.442 88.8195C222.782 89.0159 223.335 89.0152 223.676 88.818L235.48 82.004Z" fill="#151515"/>
<path d="M310.098 111.276C310.259 111.369 310.344 111.49 310.352 111.612M310.352 111.612C310.361 111.748 310.276 111.885 310.096 111.989C309.932 112.084 309.709 112.138 309.477 112.138L294.896 112.146C294.327 112.146 293.77 112.082 293.253 111.961V87.6741C293.77 87.7953 294.327 87.8591 294.896 87.8588L309.477 87.8509C309.709 87.8506 309.932 87.7972 310.096 87.7024C310.258 87.6086 310.344 87.4871 310.352 87.3644V111.612ZM252.211 75.1949C247.583 76.007 243.733 77.2396 235.48 82.004L223.676 88.818C223.335 89.0152 222.782 89.0159 222.442 88.8195C222.316 88.7468 222.233 88.654 222.201 88.554L222.188 112.751C222.187 112.884 222.279 113.012 222.442 113.106C222.782 113.303 223.335 113.302 223.676 113.105L235.48 106.291C243.733 101.527 247.583 100.294 252.211 99.4818C254.587 99.0648 256.992 98.8613 259.395 98.8712V74.5843C256.992 74.5743 254.587 74.7779 252.211 75.1949Z" stroke="#151515" stroke-width="2" stroke-linejoin="round"/>
<path fill-rule="evenodd" clip-rule="evenodd" d="M309.477 87.851L294.896 87.8589C293.74 87.8596 292.633 87.5954 291.817 87.1245L282.902 81.9778C274.665 77.2226 270.819 75.9942 266.194 75.1874C261.569 74.3804 256.838 74.3831 252.211 75.195C247.583 76.0071 243.733 77.2397 235.48 82.0041L223.676 88.8181C223.335 89.0153 222.782 89.016 222.442 88.8196C222.279 88.7255 222.187 88.5976 222.188 88.4642L222.201 80.0461C222.203 79.377 222.665 78.7345 223.486 78.2603L227.586 75.8934C238.59 69.5408 243.724 67.8974 249.894 66.8146C256.064 65.7319 262.372 65.7285 268.539 66.8045C274.705 67.8802 279.834 69.5179 290.816 75.8582L310.098 86.9897C310.439 87.1861 310.438 87.5053 310.096 87.7025C309.932 87.7973 309.709 87.8508 309.477 87.851Z" fill="#ED6B22" stroke="#151515" stroke-width="2" stroke-linejoin="round"/>
<path fill-rule="evenodd" clip-rule="evenodd" d="M305.333 167.876L305.346 159.458C305.347 158.789 305.81 158.146 306.631 157.672L315.557 152.519C323.809 147.755 325.945 145.532 327.351 142.861C328.758 140.189 328.762 137.458 327.365 134.788C325.967 132.118 323.839 129.897 315.602 125.142L303.823 118.342C303.482 118.145 303.484 117.826 303.825 117.629C303.99 117.534 304.212 117.481 304.444 117.481L319.025 117.473C320.18 117.472 321.288 117.736 322.103 118.207L326.202 120.573C337.185 126.914 340.022 129.874 341.886 133.434C343.749 136.994 343.743 140.636 341.868 144.198C339.992 147.76 337.146 150.724 326.142 157.076L306.821 168.23C306.48 168.427 305.927 168.428 305.587 168.231C305.424 168.137 305.332 168.009 305.333 167.876Z" fill="#151515" stroke="#151515" stroke-width="2" stroke-linejoin="round"/>
<path d="M315.602 100.855C323.839 105.61 325.967 107.83 327.365 110.5C327.965 111.648 328.307 112.806 328.39 113.967V138.254C328.416 138.624 328.416 138.995 328.39 139.366V138.254C328.307 137.093 327.965 135.934 327.365 134.787C325.967 132.117 323.839 129.897 315.602 125.141L303.823 118.341C303.634 118.232 303.55 118.086 303.572 117.943V93.7425C303.567 93.7138 303.567 93.6849 303.572 93.6562V93.7425C303.588 93.8563 303.672 93.9672 303.823 94.0542L315.602 100.855Z" fill="#F39A68"/>
<path d="M327.365 110.5C325.967 107.83 323.839 105.61 315.602 100.855L303.823 94.0542C303.634 93.9453 303.55 93.7988 303.572 93.6562V117.943C303.55 118.086 303.634 118.232 303.823 118.341L315.602 125.141C323.839 129.897 325.967 132.117 327.365 134.787C328.157 136.301 328.499 137.835 328.39 139.366V113.967C328.307 112.806 327.965 111.648 327.365 110.5Z" stroke="#151515" stroke-width="2" stroke-linejoin="round"/>
<path d="M326.147 132.789C337.151 126.436 339.997 123.473 341.873 119.911C342.719 118.303 343.185 116.68 343.27 115.055V113.967C343.289 114.329 343.289 114.692 343.27 115.055V138.254C343.374 140.241 342.908 142.232 341.873 144.198C339.997 147.76 337.151 150.723 326.147 157.076L306.827 168.23C306.485 168.427 305.932 168.427 305.592 168.231C305.429 168.137 305.338 168.009 305.338 167.875V143.589C305.338 143.722 305.429 143.85 305.592 143.944C305.932 144.14 306.485 144.14 306.827 143.943L326.147 132.789Z" fill="#151515"/>
<path d="M305.338 143.589C305.338 143.722 305.429 143.85 305.592 143.944C305.932 144.14 306.485 144.14 306.827 143.943L326.147 132.789C337.151 126.436 339.997 123.473 341.873 119.911C342.908 117.945 343.374 115.954 343.27 113.967V138.254C343.374 140.241 342.908 142.232 341.873 144.198C339.997 147.76 337.151 150.723 326.147 157.076L306.827 168.23C306.485 168.427 305.932 168.427 305.592 168.231C305.429 168.137 305.338 168.009 305.338 167.875V143.589Z" stroke="#151515" stroke-width="2" stroke-linejoin="round"/>
<path fill-rule="evenodd" clip-rule="evenodd" d="M305.333 143.589L305.346 135.171C305.347 134.501 305.81 133.859 306.631 133.385L315.557 128.232C323.809 123.468 325.945 121.245 327.351 118.573C328.758 115.902 328.762 113.171 327.365 110.501C325.967 107.831 323.839 105.61 315.602 100.855L303.823 94.0545C303.482 93.8581 303.484 93.5392 303.825 93.3422C303.99 93.2472 304.212 93.1937 304.444 93.1937L319.025 93.1855C320.18 93.1849 321.288 93.4491 322.103 93.92L326.202 96.2862C337.185 102.627 340.022 105.587 341.886 109.147C343.749 112.707 343.743 116.349 341.868 119.911C339.992 123.473 337.146 126.437 326.142 132.789L306.821 143.943C306.48 144.14 305.927 144.141 305.587 143.944C305.424 143.85 305.332 143.722 305.333 143.589Z" fill="#ED6B22" stroke="#151515" stroke-width="2" stroke-linejoin="round"/>
<path d="M223.382 165.58L208.801 165.588C208.57 165.589 208.347 165.642 208.183 165.737C207.841 165.934 207.84 166.253 208.18 166.449L227.462 177.581C238.445 183.921 243.573 185.559 249.74 186.635C255.906 187.711 262.214 187.707 268.385 186.625C274.555 185.542 279.689 183.898 290.692 177.546L294.792 175.179C295.614 174.705 296.076 174.062 296.077 173.393L296.091 164.975C296.091 164.842 296 164.714 295.837 164.619C295.496 164.423 294.944 164.424 294.602 164.621L282.799 171.435C274.546 176.2 270.696 177.432 266.068 178.244C261.44 179.056 256.709 179.059 252.084 178.252C247.459 177.445 243.613 176.217 235.376 171.461L226.461 166.315C225.645 165.844 224.538 165.58 223.382 165.58Z" fill="#151515" stroke="#151515" stroke-width="2" stroke-linejoin="round"/>
<path d="M227.462 153.294C238.445 159.634 243.573 161.272 249.74 162.348C252.734 162.87 255.762 163.138 258.792 163.152V187.439C255.762 187.425 252.734 187.157 249.74 186.635C243.573 185.559 238.445 183.921 227.462 177.581L208.18 166.449C208.006 166.349 207.921 166.216 207.926 166.084V141.818C207.926 141.811 207.926 141.804 207.926 141.797V141.818C207.93 141.943 208.015 142.067 208.18 142.162L227.462 153.294Z" fill="#F39A68"/>
<path d="M208.183 165.737C208.016 165.833 207.93 165.958 207.926 166.084M207.926 166.084C207.921 166.216 208.006 166.349 208.18 166.449L227.462 177.581C238.445 183.921 243.573 185.559 249.74 186.635C252.734 187.157 255.762 187.425 258.792 187.439V163.152C255.762 163.138 252.734 162.87 249.74 162.348C243.573 161.272 238.445 159.634 227.462 153.294L208.18 142.162C208.006 142.062 207.921 141.929 207.926 141.797V166.084Z" stroke="#151515" stroke-width="2" stroke-linejoin="round"/>
<path d="M294.793 150.891C295.614 150.417 296.076 149.775 296.077 149.105V173.392C296.076 174.061 295.614 174.703 294.793 175.178L290.693 177.544C279.689 183.897 274.556 185.54 268.386 186.623C265.212 187.18 262.002 187.451 258.793 187.437V163.151C262.002 163.165 265.212 162.893 268.386 162.337C274.556 161.254 279.689 159.61 290.693 153.258L294.793 150.891Z" fill="#151515" stroke="#151515" stroke-width="2" stroke-linejoin="round"/>
<path d="M223.382 141.291L208.801 141.299C208.57 141.3 208.347 141.353 208.183 141.448C207.841 141.645 207.84 141.964 208.18 142.16L227.462 153.292C238.445 159.632 243.573 161.27 249.74 162.346C255.906 163.422 262.214 163.418 268.385 162.335C274.555 161.253 279.689 159.609 290.692 153.257L294.792 150.89C295.614 150.416 296.076 149.773 296.077 149.104L296.091 140.686C296.091 140.553 296 140.425 295.837 140.33C295.496 140.134 294.944 140.135 294.602 140.332L282.799 147.146C274.546 151.911 270.696 153.143 266.068 153.955C261.44 154.767 256.709 154.77 252.084 153.963C247.459 153.156 243.613 151.928 235.376 147.172L226.461 142.026C225.645 141.555 224.538 141.291 223.382 141.291Z" fill="#ED6B22" stroke="#151515" stroke-width="2" stroke-linejoin="round"/>
<path fill-rule="evenodd" clip-rule="evenodd" d="M278.719 112.182L259.276 112.447C257.961 112.448 256.713 112.617 255.595 112.918C254.66 113.162 253.785 113.506 253.016 113.95L223.643 130.907C223.302 131.104 222.749 131.104 222.409 130.908C222.245 130.814 222.154 130.686 222.154 130.552L222.174 122.13C222.176 121.461 222.638 120.819 223.459 120.345L246.862 106.834C253.679 102.899 264.721 102.893 271.524 106.821L279.321 111.322C279.661 111.518 279.66 111.837 279.318 112.034C279.159 112.126 278.944 112.179 278.719 112.182Z" fill="#ED6B22" stroke="#151515" stroke-width="2" stroke-linejoin="round"/>
<path d="M259.277 88.1598L278.72 87.895C278.945 87.8919 279.16 87.8387 279.319 87.7467C279.487 87.6497 279.573 87.5233 279.576 87.3965V111.669C279.579 111.8 279.493 111.932 279.319 112.033C279.16 112.125 278.945 112.178 278.72 112.181L259.277 112.446C257.962 112.447 256.714 112.616 255.596 112.917V88.631C256.714 88.3294 257.962 88.1606 259.277 88.1598Z" fill="#F39A68"/>
<path d="M279.321 111.321C279.488 111.417 279.573 111.542 279.576 111.669M279.576 111.669C279.579 111.8 279.493 111.932 279.319 112.033C279.16 112.125 278.945 112.178 278.72 112.181L259.277 112.446C257.962 112.447 256.714 112.616 255.596 112.917V88.631C256.714 88.3294 257.962 88.1606 259.277 88.1598L278.72 87.895C278.945 87.8919 279.16 87.8387 279.319 87.7467C279.487 87.6497 279.573 87.5233 279.576 87.3965V111.669Z" stroke="#151515" stroke-width="2" stroke-linejoin="round"/>
<path d="M253.015 89.6619C253.784 89.2183 254.659 88.8747 255.594 88.6309V112.917C254.659 113.161 253.784 113.505 253.015 113.948L223.643 130.905C223.302 131.102 222.749 131.103 222.409 130.906C222.245 130.812 222.154 130.684 222.154 130.551V106.266C222.155 106.399 222.246 106.526 222.409 106.62C222.749 106.816 223.302 106.816 223.643 106.619L253.015 89.6619Z" fill="#151515"/>
<path d="M222.154 130.551C222.154 130.684 222.245 130.812 222.409 130.906C222.749 131.103 223.302 131.102 223.643 130.905L253.015 113.948C253.784 113.505 254.659 113.161 255.594 112.917V88.6309C254.659 88.8747 253.784 89.2183 253.015 89.6619L223.643 106.619C223.302 106.816 222.749 106.816 222.409 106.62C222.245 106.526 222.154 106.398 222.154 106.264V130.551ZM222.154 130.551L222.174 122.129" stroke="#151515" stroke-width="2" stroke-linejoin="round"/>
<path fill-rule="evenodd" clip-rule="evenodd" d="M278.719 87.8953L259.276 88.1601C257.961 88.1609 256.713 88.3298 255.595 88.6313C254.66 88.8752 253.785 89.2188 253.016 89.6624L223.643 106.62C223.302 106.817 222.749 106.817 222.409 106.621C222.245 106.527 222.154 106.399 222.154 106.265L222.174 97.8429C222.176 97.1741 222.638 96.532 223.459 96.058L246.862 82.5473C253.679 78.6119 264.721 78.6059 271.524 82.5337L279.321 87.0346C279.661 87.231 279.66 87.5498 279.318 87.7471C279.159 87.8391 278.944 87.8922 278.719 87.8953Z" fill="#ED6B22" stroke="#151515" stroke-width="2" stroke-linejoin="round"/>
<path fill-rule="evenodd" clip-rule="evenodd" d="M305.32 150.12L304.898 138.892C304.9 138.133 304.61 137.413 304.089 136.768C303.669 136.229 303.075 135.724 302.308 135.281L272.993 118.358C272.652 118.161 272.654 117.842 272.995 117.645C273.159 117.55 273.382 117.497 273.614 117.497L288.203 117.492C289.358 117.492 290.465 117.756 291.28 118.227L314.645 131.715C321.449 135.643 321.438 142.017 314.622 145.953L306.809 150.463C306.467 150.66 305.915 150.661 305.574 150.464C305.416 150.373 305.325 150.25 305.32 150.12Z" fill="#ED6B22" stroke="#151515" stroke-width="2" stroke-linejoin="round"/>
<path fill-rule="evenodd" clip-rule="evenodd" d="M305.32 125.833L304.898 114.605C304.9 113.846 304.61 113.126 304.089 112.481C303.669 111.942 303.075 111.437 302.308 110.994L272.993 94.0706C272.652 93.8743 272.654 93.5551 272.995 93.3579C273.159 93.2631 273.382 93.2097 273.614 93.2096L288.203 93.2051C289.358 93.2046 290.465 93.4689 291.28 93.9395L314.645 107.428C321.449 111.356 321.438 117.73 314.622 121.666L306.809 126.176C306.467 126.373 305.915 126.374 305.574 126.177C305.416 126.086 305.325 125.963 305.32 125.833Z" fill="#ED6B22" stroke="#151515" stroke-width="2" stroke-linejoin="round"/>
<path d="M304.089 112.481C304.61 113.127 304.9 113.847 304.898 114.606V138.881C304.897 138.126 304.607 137.41 304.089 136.768C303.669 136.229 303.075 135.725 302.308 135.282L272.993 118.358C272.82 118.259 272.736 118.128 272.738 117.997V93.7227C272.741 93.8492 272.826 93.975 272.993 94.0713L302.308 110.995C303.075 111.438 303.669 111.942 304.089 112.481Z" fill="#F39A68"/>
<path d="M304.898 114.606C304.9 113.847 304.61 113.127 304.089 112.481C303.669 111.942 303.075 111.438 302.308 110.995L272.993 94.0713C272.826 93.975 272.741 93.8492 272.738 93.7227V117.997C272.736 118.128 272.82 118.259 272.993 118.358L302.308 135.282C303.075 135.725 303.669 136.229 304.089 136.768C304.61 137.414 304.9 138.134 304.898 138.893V114.606Z" stroke="#151515" stroke-width="2" stroke-linejoin="round"/>
<path d="M304.898 114.605L305.32 125.833C305.325 125.962 305.416 126.086 305.574 126.177C305.915 126.373 306.467 126.373 306.809 126.176L314.621 121.666C318.003 119.713 319.709 117.161 319.74 114.605V138.892C319.709 141.448 318.003 144 314.621 145.952L306.809 150.462C306.467 150.659 305.915 150.66 305.574 150.463C305.416 150.372 305.325 150.249 305.32 150.119L304.898 138.892V114.605Z" fill="#151515" stroke="#151515" stroke-width="2" stroke-linejoin="round"/>
<path fill-rule="evenodd" clip-rule="evenodd" d="M309.48 87.851L294.899 87.8589C293.743 87.8596 292.636 87.5954 291.82 87.1245L282.905 81.9778C274.668 77.2226 270.822 75.9942 266.197 75.1874C261.572 74.3804 256.84 74.3831 252.213 75.195C247.585 76.0071 243.735 77.2397 235.482 82.0041L223.679 88.8181C223.337 89.0153 222.785 89.016 222.444 88.8196C222.281 88.7255 222.19 88.5976 222.19 88.4642L222.204 80.0461C222.205 79.377 222.667 78.7345 223.489 78.2603L227.588 75.8934C238.592 69.5408 243.726 67.8974 249.896 66.8146C256.067 65.7319 262.375 65.7285 268.541 66.8045C274.708 67.8802 279.836 69.5179 290.819 75.8582L310.101 86.9897C310.441 87.1861 310.44 87.5053 310.098 87.7025C309.934 87.7973 309.711 87.8508 309.48 87.851Z" fill="#ED6B22"/>
<path fill-rule="evenodd" clip-rule="evenodd" d="M305.333 143.588L305.347 135.17C305.348 134.501 305.81 133.859 306.632 133.384L315.557 128.232C323.81 123.467 325.945 121.244 327.352 118.573C328.758 115.902 328.763 113.17 327.365 110.5C325.967 107.83 323.84 105.61 315.603 100.855L303.823 94.0543C303.483 93.8578 303.485 93.5389 303.826 93.3419C303.99 93.2469 304.212 93.1934 304.444 93.1934L319.025 93.1853C320.181 93.1846 321.288 93.4488 322.104 93.9197L326.203 96.286C337.185 102.626 340.022 105.587 341.886 109.147C343.75 112.707 343.744 116.349 341.868 119.911C339.992 123.473 337.146 126.436 326.142 132.789L306.822 143.943C306.48 144.14 305.928 144.14 305.587 143.944C305.424 143.85 305.333 143.722 305.333 143.588Z" fill="#ED6B22"/>
<path fill-rule="evenodd" clip-rule="evenodd" d="M208.799 141.297L223.38 141.289C224.536 141.288 225.644 141.552 226.459 142.023L235.374 147.17C243.611 151.925 247.457 153.153 252.082 153.96C256.707 154.767 261.438 154.765 266.066 153.952C270.694 153.141 274.544 151.908 282.797 147.144L294.6 140.33C294.942 140.132 295.494 140.131 295.835 140.328C295.998 140.422 296.09 140.55 296.089 140.683L296.075 149.102C296.074 149.771 295.612 150.413 294.791 150.887L290.691 153.254C279.687 159.607 274.553 161.25 268.383 162.333C262.213 163.416 255.905 163.419 249.738 162.343C243.571 161.267 238.443 159.63 227.46 153.289L208.178 142.158C207.838 141.961 207.839 141.642 208.181 141.445C208.345 141.35 208.568 141.297 208.799 141.297Z" fill="#ED6B22"/>
<path fill-rule="evenodd" clip-rule="evenodd" d="M212.947 85.5597L212.932 93.978C212.931 94.6471 212.469 95.2894 211.648 95.7636L202.722 100.916C194.469 105.681 192.334 107.904 190.928 110.575C189.521 113.247 189.517 115.978 190.914 118.648C192.312 121.318 194.44 123.538 202.677 128.294L214.456 135.094C214.796 135.29 214.795 135.609 214.454 135.807C214.289 135.901 214.067 135.955 213.835 135.955L199.254 135.963C198.098 135.964 196.991 135.699 196.175 135.229L192.077 132.862C181.094 126.522 178.257 123.561 176.393 120.001C174.53 116.442 174.536 112.8 176.411 109.238C178.287 105.676 181.133 102.712 192.137 96.3595L211.458 85.2058C211.799 85.0086 212.352 85.0079 212.692 85.2042C212.855 85.2984 212.947 85.4263 212.947 85.5597Z" fill="#ED6B22"/>
<path fill-rule="evenodd" clip-rule="evenodd" d="M278.718 87.8942L259.274 88.1589C257.959 88.1598 256.712 88.3286 255.593 88.6302C254.658 88.874 253.783 89.2177 253.014 89.6612L223.641 106.618C223.3 106.816 222.747 106.816 222.407 106.62C222.244 106.526 222.152 106.398 222.153 106.264L222.172 97.8417C222.174 97.1729 222.636 96.5308 223.457 96.0569L246.861 82.5461C253.677 78.6107 264.719 78.6047 271.522 82.5325L279.319 87.0334C279.659 87.2298 279.658 87.5487 279.317 87.7459C279.157 87.8379 278.943 87.891 278.718 87.8942Z" fill="#ED6B22"/>
<path fill-rule="evenodd" clip-rule="evenodd" d="M305.322 125.833L304.901 114.606C304.902 113.846 304.612 113.126 304.092 112.481C303.671 111.942 303.077 111.437 302.31 110.995L272.995 94.0709C272.655 93.8745 272.656 93.5554 272.997 93.3582C273.162 93.2634 273.385 93.2099 273.617 93.2098L288.205 93.2053C289.361 93.2049 290.467 93.4691 291.282 93.9397L314.647 107.428C321.451 111.356 321.441 117.73 314.624 121.666L306.811 126.176C306.47 126.373 305.917 126.374 305.576 126.177C305.418 126.086 305.327 125.963 305.322 125.833Z" fill="#ED6B22"/>
<path fill-rule="evenodd" clip-rule="evenodd" d="M239.562 141.253L259.006 140.988C260.321 140.987 261.568 140.818 262.687 140.517C263.621 140.273 264.497 139.929 265.265 139.486L294.638 122.529C294.98 122.331 295.533 122.331 295.873 122.527C296.036 122.621 296.128 122.749 296.127 122.883L296.107 131.305C296.105 131.974 295.643 132.616 294.822 133.09L271.419 146.601C264.602 150.536 253.561 150.542 246.757 146.615L238.96 142.114C238.621 141.917 238.622 141.598 238.963 141.401C239.123 141.309 239.337 141.256 239.562 141.253Z" fill="#ED6B22"/>
<path fill-rule="evenodd" clip-rule="evenodd" d="M212.963 103.317L213.385 114.545C213.384 115.304 213.674 116.024 214.194 116.669C214.615 117.208 215.208 117.713 215.975 118.156L245.291 135.08C245.631 135.276 245.629 135.595 245.288 135.792C245.123 135.887 244.901 135.94 244.669 135.94L230.08 135.945C228.925 135.945 227.819 135.681 227.003 135.211L203.638 121.722C196.835 117.794 196.845 111.42 203.662 107.485L211.475 102.974C211.816 102.777 212.369 102.777 212.709 102.973C212.867 103.064 212.958 103.188 212.963 103.317Z" fill="#ED6B22"/>
<path fill-rule="evenodd" clip-rule="evenodd" d="M309.48 87.851L294.899 87.8589C293.743 87.8596 292.636 87.5954 291.82 87.1245L282.905 81.9778C274.668 77.2226 270.822 75.9942 266.197 75.1874C261.572 74.3804 256.84 74.3831 252.213 75.195C247.585 76.0071 243.735 77.2397 235.482 82.0041L223.679 88.8181C223.337 89.0153 222.785 89.016 222.444 88.8196C222.281 88.7255 222.19 88.5976 222.19 88.4642L222.204 80.0461C222.205 79.377 222.667 78.7345 223.489 78.2603L227.588 75.8934C238.592 69.5408 243.726 67.8974 249.896 66.8146C256.067 65.7319 262.375 65.7285 268.541 66.8045C274.708 67.8802 279.836 69.5179 290.819 75.8582L310.101 86.9897C310.441 87.1861 310.44 87.5053 310.098 87.7025C309.934 87.7973 309.711 87.8508 309.48 87.851Z" stroke="#151515" stroke-width="2" stroke-linejoin="round"/>
<path fill-rule="evenodd" clip-rule="evenodd" d="M305.333 143.588L305.347 135.17C305.348 134.501 305.81 133.859 306.632 133.384L315.557 128.232C323.81 123.467 325.945 121.244 327.352 118.573C328.758 115.902 328.763 113.17 327.365 110.5C325.967 107.83 323.84 105.61 315.603 100.855L303.823 94.0543C303.483 93.8578 303.485 93.5389 303.826 93.3419C303.99 93.2469 304.212 93.1934 304.444 93.1934L319.025 93.1853C320.181 93.1846 321.288 93.4488 322.104 93.9197L326.203 96.286C337.185 102.626 340.022 105.587 341.886 109.147C343.75 112.707 343.744 116.349 341.868 119.911C339.992 123.473 337.146 126.436 326.142 132.789L306.822 143.943C306.48 144.14 305.928 144.14 305.587 143.944C305.424 143.85 305.333 143.722 305.333 143.588Z" stroke="#151515" stroke-width="2" stroke-linejoin="round"/>
<path fill-rule="evenodd" clip-rule="evenodd" d="M208.799 141.297L223.38 141.289C224.536 141.288 225.644 141.552 226.459 142.023L235.374 147.17C243.611 151.925 247.457 153.153 252.082 153.96C256.707 154.767 261.438 154.765 266.066 153.952C270.694 153.141 274.544 151.908 282.797 147.144L294.6 140.33C294.942 140.132 295.494 140.131 295.835 140.328C295.998 140.422 296.09 140.55 296.089 140.683L296.075 149.102C296.074 149.771 295.612 150.413 294.791 150.887L290.691 153.254C279.687 159.607 274.553 161.25 268.383 162.333C262.213 163.416 255.905 163.419 249.738 162.343C243.571 161.267 238.443 159.63 227.46 153.289L208.178 142.158C207.838 141.961 207.839 141.642 208.181 141.445C208.345 141.35 208.568 141.297 208.799 141.297Z" stroke="#151515" stroke-width="2" stroke-linejoin="round"/>
<path fill-rule="evenodd" clip-rule="evenodd" d="M212.947 85.5597L212.932 93.978C212.931 94.6471 212.469 95.2894 211.648 95.7636L202.722 100.916C194.469 105.681 192.334 107.904 190.928 110.575C189.521 113.247 189.517 115.978 190.914 118.648C192.312 121.318 194.44 123.538 202.677 128.294L214.456 135.094C214.796 135.29 214.795 135.609 214.454 135.807C214.289 135.901 214.067 135.955 213.835 135.955L199.254 135.963C198.098 135.964 196.991 135.699 196.175 135.229L192.077 132.862C181.094 126.522 178.257 123.561 176.393 120.001C174.53 116.442 174.536 112.8 176.411 109.238C178.287 105.676 181.133 102.712 192.137 96.3595L211.458 85.2058C211.799 85.0086 212.352 85.0079 212.692 85.2042C212.855 85.2984 212.947 85.4263 212.947 85.5597Z" stroke="#151515" stroke-width="2" stroke-linejoin="round"/>
<path fill-rule="evenodd" clip-rule="evenodd" d="M278.718 87.8942L259.274 88.1589C257.959 88.1598 256.712 88.3286 255.593 88.6302C254.658 88.874 253.783 89.2177 253.014 89.6612L223.641 106.618C223.3 106.816 222.747 106.816 222.407 106.62C222.244 106.526 222.152 106.398 222.153 106.264L222.172 97.8417C222.174 97.1729 222.636 96.5308 223.457 96.0569L246.861 82.5461C253.677 78.6107 264.719 78.6047 271.522 82.5325L279.319 87.0334C279.659 87.2298 279.658 87.5487 279.317 87.7459C279.157 87.8379 278.943 87.891 278.718 87.8942Z" stroke="#151515" stroke-width="2" stroke-linejoin="round"/>
<path fill-rule="evenodd" clip-rule="evenodd" d="M305.322 125.833L304.901 114.606C304.902 113.846 304.612 113.126 304.092 112.481C303.671 111.942 303.077 111.437 302.31 110.995L272.995 94.0709C272.655 93.8745 272.656 93.5554 272.997 93.3582C273.162 93.2634 273.385 93.2099 273.617 93.2098L288.205 93.2053C289.361 93.2049 290.467 93.4691 291.282 93.9397L314.647 107.428C321.451 111.356 321.441 117.73 314.624 121.666L306.811 126.176C306.47 126.373 305.917 126.374 305.576 126.177C305.418 126.086 305.327 125.963 305.322 125.833Z" stroke="#151515" stroke-width="2" stroke-linejoin="round"/>
<path fill-rule="evenodd" clip-rule="evenodd" d="M239.562 141.253L259.006 140.988C260.321 140.987 261.568 140.818 262.687 140.517C263.621 140.273 264.497 139.929 265.265 139.486L294.638 122.529C294.98 122.331 295.533 122.331 295.873 122.527C296.036 122.621 296.128 122.749 296.127 122.883L296.107 131.305C296.105 131.974 295.643 132.616 294.822 133.09L271.419 146.601C264.602 150.536 253.561 150.542 246.757 146.615L238.96 142.114C238.621 141.917 238.622 141.598 238.963 141.401C239.123 141.309 239.337 141.256 239.562 141.253Z" stroke="#151515" stroke-width="2" stroke-linejoin="round"/>
<path fill-rule="evenodd" clip-rule="evenodd" d="M212.963 103.317L213.385 114.545C213.384 115.304 213.674 116.024 214.194 116.669C214.615 117.208 215.208 117.713 215.975 118.156L245.291 135.08C245.631 135.276 245.629 135.595 245.288 135.792C245.123 135.887 244.901 135.94 244.669 135.94L230.08 135.945C228.925 135.945 227.819 135.681 227.003 135.211L203.638 121.722C196.835 117.794 196.845 111.42 203.662 107.485L211.475 102.974C211.816 102.777 212.369 102.777 212.709 102.973C212.867 103.064 212.958 103.188 212.963 103.317Z" stroke="#151515" stroke-width="2" stroke-linejoin="round"/>
</g>
<defs>
<clipPath id="clip0_1076_2709">
<rect width="516" height="290" fill="white" transform="translate(0.5)"/>
</clipPath>
</defs>
</svg>
